<svg width="20" height="20" viewBox="0 0 20 20" fill="none" xmlns="http://www.w3.org/2000/svg">
<path d="M8.33329 12.5L12.6583 9.99999L8.33329 7.49999V12.5ZM17.9666 5.97499C18.075 6.36666 18.15 6.89166 18.2 7.55832C18.2583 8.22499 18.2833 8.79999 18.2833 9.29999L18.3333 9.99999C18.3333 11.825 18.2 13.1667 17.9666 14.025C17.7583 14.775 17.275 15.2583 16.525 15.4667C16.1333 15.575 15.4166 15.65 14.3166 15.7C13.2333 15.7583 12.2416 15.7833 11.325 15.7833L9.99996 15.8333C6.50829 15.8333 4.33329 15.7 3.47496 15.4667C2.72496 15.2583 2.24163 14.775 2.03329 14.025C1.92496 13.6333 1.84996 13.1083 1.79996 12.4417C1.74163 11.775 1.71663 11.2 1.71663 10.7L1.66663 9.99999C1.66663 8.17499 1.79996 6.83332 2.03329 5.97499C2.24163 5.22499 2.72496 4.74166 3.47496 4.53332C3.86663 4.42499 4.58329 4.34999 5.68329 4.29999C6.76663 4.24166 7.75829 4.21666 8.67496 4.21666L9.99996 4.16666C13.4916 4.16666 15.6666 4.29999 16.525 4.53332C17.275 4.74166 17.7583 5.22499 17.9666 5.97499Z" fill="#FCFEFE"/>
</svg>
