<svg width="39" height="39" viewBox="0 0 39 39" fill="none" xmlns="http://www.w3.org/2000/svg">
<path d="M36.6664 17.3333L4.41644 1.20827C3.98137 1.0067 3.50279 0.917146 3.02427 0.947761C2.54576 0.978376 2.08249 1.12819 1.67666 1.38356C1.27082 1.63893 0.935305 1.99176 0.700646 2.40991C0.465987 2.82806 0.339639 3.29827 0.333105 3.77772V36.0138C0.329042 36.506 0.452008 36.9909 0.690117 37.4216C0.928227 37.8524 1.27343 38.2144 1.69235 38.4727C2.11128 38.7311 2.58977 38.877 3.08156 38.8963C3.57336 38.9157 4.06183 38.8079 4.49977 38.5833L36.6664 22.4583C37.1429 22.2191 37.5435 21.8521 37.8235 21.3984C38.1034 20.9446 38.2516 20.422 38.2516 19.8888C38.2516 19.3557 38.1034 18.833 37.8235 18.3793C37.5435 17.9255 37.1429 17.5586 36.6664 17.3194V17.3333Z" fill="#FCFEFE"/>
</svg>
