<svg width="50" height="50" viewBox="0 0 50 50" fill="none" xmlns="http://www.w3.org/2000/svg">
<g clip-path="url(#clip0_257_944)">
<path d="M22.0853 17.3763C20.4948 16.8962 19.2986 15.9629 18.5597 14.4958C17.499 12.3944 17.5888 10.3279 19.0358 8.46118C20.4827 6.59448 22.505 5.86898 24.8317 6.40673C27.9858 7.13893 30.9186 6.70712 33.6998 5.06035C36.3886 3.46721 39.0961 1.91029 41.7996 0.345316C42.0116 0.21698 42.2475 0.133035 42.4929 0.0985675C42.8858 0.0556548 43.1634 0.270218 43.2975 0.634976C43.4316 0.999734 43.2855 1.28671 43.0199 1.52676C42.9173 1.61222 42.8058 1.6864 42.6874 1.74802C39.7546 3.45112 36.8284 5.15958 33.8755 6.82379C30.9226 8.488 27.7913 8.92115 24.4884 8.04278C22.2717 7.45273 20.118 8.72804 19.5708 10.9246C19.4426 11.4406 19.4179 11.9769 19.4983 12.5025C19.5786 13.0281 19.7623 13.5326 20.0387 13.9867C20.3152 14.4409 20.6789 14.8357 21.1089 15.1485C21.5389 15.4612 22.0266 15.6856 22.5439 15.8086C22.6904 15.8393 22.8386 15.8613 22.9878 15.8743C23.842 15.9722 24.1169 16.4228 23.8031 17.2154C23.2211 18.6905 23.3767 20.0825 24.3636 21.3229C25.3506 22.5634 26.7091 23.0435 28.2526 22.7578C29.7666 22.4762 30.8917 21.6086 31.337 20.0758C32.2918 16.7862 34.1759 14.2115 37.1034 12.4091C37.6036 12.1007 38.152 12.1517 38.3934 12.5245C38.6348 12.8973 38.4484 13.4511 37.9241 13.7783C35.4485 15.3259 33.8313 17.5037 33.0213 20.3145C31.864 24.3268 26.8861 25.8448 23.8407 23.1132C22.1349 21.5871 21.5904 19.6601 22.0853 17.3763Z" fill="#212124"/>
<path d="M17.3112 22.0779C19.2638 21.6448 20.999 21.9894 22.4956 23.2969C23.032 23.7676 23.0133 24.355 22.4728 24.6714C22.3332 24.7668 22.1653 24.8116 21.9968 24.7984C21.8282 24.7853 21.6693 24.7149 21.5462 24.599C20.1395 23.423 18.6187 23.1601 16.9451 24.0063C16.5254 24.2182 16.1405 24.0143 15.9836 23.5182C15.8844 23.2017 15.8495 22.8637 15.7717 22.5419C15.2099 20.4284 13.0723 19.1156 11.0259 19.6198C8.8172 20.1643 7.50971 22.2361 8.03539 24.4381C8.89901 28.0173 8.35053 31.3538 6.49053 34.5145C4.87192 37.265 3.30292 40.0436 1.71247 42.8114C1.52741 43.1346 1.34503 43.4511 0.907858 43.4739C0.229301 43.5101 -0.189098 42.9268 0.0911759 42.3059C0.186388 42.094 0.312444 41.8955 0.429113 41.6917C1.92703 39.066 3.39948 36.4242 4.93495 33.8186C6.60854 30.9756 7.1074 27.9918 6.32961 24.764C5.61887 21.8137 7.3461 18.9761 10.2561 18.1393C13.1876 17.2958 16.1566 18.8098 17.1664 21.6662C17.2107 21.7909 17.2549 21.9156 17.3112 22.0779Z" fill="#212124"/>
<path d="M24.5206 27.5131C24.5072 30.1428 22.8966 32.3139 20.4546 33.0112C17.3783 33.8816 15.112 35.7201 13.539 38.4866C11.4979 42.0739 9.41534 45.6383 7.35285 49.2148C7.15572 49.5554 6.95054 49.8773 6.50398 49.9068C6.36662 49.9208 6.22797 49.8992 6.10136 49.8441C5.97476 49.789 5.86446 49.7023 5.78108 49.5922C5.6977 49.4822 5.64404 49.3525 5.62527 49.2157C5.6065 49.0789 5.62324 48.9396 5.67389 48.8112C5.75048 48.643 5.84016 48.4812 5.94209 48.3271C8.01799 44.7036 10.0943 41.0802 12.1711 37.4567C13.9466 34.3549 16.4946 32.2388 19.9812 31.3001C21.8989 30.7838 23.0535 29.0002 22.8296 27.0182C22.7639 26.4456 23.012 26.046 23.4907 25.9548C23.948 25.8663 24.3583 26.1881 24.4576 26.75C24.4938 27.0029 24.5148 27.2577 24.5206 27.5131Z" fill="#212124"/>
<path d="M49.9999 6.46307C49.78 6.73128 49.6097 7.08262 49.3294 7.25025C46.7359 8.79511 44.1249 10.3131 41.5139 11.8285C41.0178 12.1168 40.5028 11.9881 40.248 11.5603C40.0066 11.1499 40.1622 10.7007 40.6852 10.3949C43.3172 8.8483 45.9545 7.30747 48.5972 5.77245C49.2543 5.38221 49.9087 5.70271 49.9999 6.46307Z" fill="#212124"/>
<path d="M8.04616 41.4088C7.99092 41.5642 7.92505 41.7156 7.84903 41.862C7.13695 43.1092 6.43559 44.363 5.6873 45.5887C5.51421 45.8633 5.24738 46.0658 4.93633 46.1587C4.79331 46.1959 4.64246 46.1897 4.50293 46.141C4.36341 46.0923 4.2415 46.0032 4.1527 45.8851C4.06389 45.767 4.01219 45.6251 4.00415 45.4776C3.99612 45.33 4.03212 45.1834 4.10758 45.0563C4.89342 43.6214 5.7168 42.2107 6.55226 40.7999C6.74269 40.4768 7.05783 40.2917 7.44806 40.4124C7.8678 40.5438 8.0247 40.8831 8.04616 41.4088Z" fill="#212124"/>
<path d="M6.23041 14.7707C6.93177 14.7707 7.63312 14.7626 8.33582 14.7707C8.94732 14.7801 9.25308 15.063 9.25442 15.5887C9.25576 16.1144 8.96476 16.3933 8.3385 16.4054C6.90092 16.4197 5.4638 16.4197 4.02711 16.4054C3.38208 16.4054 3.06158 16.0983 3.07499 15.5659C3.0884 15.0335 3.42365 14.772 4.07405 14.7613C4.79284 14.7667 5.51163 14.7707 6.23041 14.7707Z" fill="#212124"/>
<path d="M14.3811 6.51806C14.3811 5.81537 14.3731 5.11133 14.3811 4.40864C14.3892 3.79847 14.6735 3.46992 15.1858 3.46053C15.698 3.45115 16.0132 3.76092 16.0199 4.36975C16.0342 5.82431 16.0342 7.27977 16.0199 8.73611C16.0199 9.34226 15.7383 9.63594 15.2434 9.6413C14.7486 9.64667 14.3986 9.27789 14.3865 8.72673C14.3691 7.99051 14.3811 7.25428 14.3811 6.51806Z" fill="#212124"/>
<path d="M34.251 33.8172C34.0525 34.0492 33.9064 34.3255 33.677 34.4596C33.3431 34.6553 32.9945 34.5253 32.7236 34.2584C32.1067 33.6482 31.4965 33.0314 30.8837 32.4185C30.4117 31.9465 29.9329 31.4798 29.4703 31.0011C29.0881 30.6055 29.0814 30.1415 29.4273 29.8062C29.7733 29.471 30.2159 29.4844 30.5873 29.8505C31.6914 30.9358 32.787 32.0336 33.8742 33.144C34.0257 33.2982 34.0968 33.5329 34.251 33.8172Z" fill="#212124"/>
<path d="M7.17182 6.81842C7.44673 6.96057 7.66934 7.02091 7.81417 7.15904C8.97013 8.26851 10.1176 9.38603 11.2566 10.5116C11.5838 10.8348 11.616 11.2143 11.3263 11.5925C11.0366 11.9706 10.578 12.0578 10.1918 11.6917C8.99293 10.5585 7.8088 9.40525 6.65821 8.21845C6.49997 8.05618 6.46644 7.64047 6.55227 7.41383C6.63809 7.1872 6.94519 7.02226 7.17182 6.81842Z" fill="#212124"/>
<path d="M34.5004 25.0791C35.2339 25.0791 35.9755 25.0697 36.7037 25.0791C37.2803 25.0885 37.6424 25.4238 37.625 25.9106C37.6076 26.3973 37.2723 26.6897 36.7091 26.6924C35.2393 26.6995 33.77 26.6995 32.3011 26.6924C31.7366 26.6924 31.4321 26.3906 31.4295 25.8878C31.4268 25.3849 31.7178 25.0939 32.2958 25.0831C33.0306 25.0697 33.7655 25.0791 34.5004 25.0791Z" fill="#212124"/>
<path d="M26.2049 34.992C26.2049 35.7443 26.2116 36.4953 26.2049 37.2476C26.2049 37.784 25.9112 38.0817 25.4257 38.0924C24.9175 38.1031 24.6104 37.7947 24.6077 37.2355C24.6015 35.7496 24.6015 34.2629 24.6077 32.7753C24.6077 32.2026 24.892 31.9116 25.4123 31.9143C25.9327 31.917 26.2009 32.204 26.2062 32.786C26.2102 33.5209 26.2049 34.2571 26.2049 34.992Z" fill="#212124"/>
<path d="M13.6368 21.9197C13.6609 22.6371 13.0722 23.093 12.5412 22.8825C11.9766 22.6586 11.5649 22.7323 11.2002 23.2446C11.1379 23.3345 11.0576 23.4106 10.9645 23.468C10.8714 23.5254 10.7674 23.5629 10.659 23.5782C10.5507 23.5934 10.4404 23.586 10.335 23.5566C10.2297 23.5271 10.1316 23.4761 10.0469 23.4068C9.67945 23.1386 9.61105 22.6599 9.8806 22.2536C10.5042 21.3149 12.1603 20.8562 13.1527 21.3846C13.3874 21.508 13.5335 21.8003 13.6368 21.9197Z" fill="#212124"/>
<path d="M22.784 9.55945C22.9718 9.72305 23.311 9.88129 23.3834 10.12C23.4639 10.3882 23.4103 10.8495 23.2252 11.0171C22.7746 11.4275 22.6566 11.803 22.8685 12.381C22.9069 12.4796 22.9248 12.585 22.921 12.6908C22.9173 12.7966 22.8919 12.9005 22.8466 12.9962C22.8013 13.0919 22.7369 13.1773 22.6574 13.2472C22.578 13.3171 22.485 13.3701 22.3844 13.4028C22.0129 13.5289 21.5382 13.313 21.3303 12.9241C20.7644 11.8687 21.2298 10.2997 22.2851 9.72708C22.4473 9.6596 22.614 9.60359 22.784 9.55945Z" fill="#212124"/>
</g>
<defs>
<clipPath id="clip0_257_944">
<rect width="50" height="49.8029" fill="white" transform="translate(0 0.0985718)"/>
</clipPath>
</defs>
</svg>
