<svg width="50" height="50" viewBox="0 0 50 50" fill="none" xmlns="http://www.w3.org/2000/svg">
<path d="M19.2381 0C19.786 0.130463 20.347 0.229615 20.8806 0.40835C23.032 1.1272 24.7149 2.38095 25.5042 4.60274C25.8095 5.46534 25.8634 6.39695 25.6595 7.28898C25.8604 7.36986 26.0509 7.44945 26.2401 7.5225C28.7423 8.47097 30.9563 9.85127 32.7462 11.8721C34.1357 13.4377 34.7489 15.3412 35.0476 17.3633C35.1546 18.0861 35.2042 18.818 35.2433 19.5486C35.2707 20.0626 34.9589 20.3992 34.5205 20.4057C34.1018 20.4123 33.8121 20.1148 33.7808 19.6112C33.6869 18.1161 33.5199 16.6354 33.0111 15.2107C32.2753 13.1402 30.7476 11.7521 28.9941 10.5753C26.7123 9.0437 24.1513 8.22701 21.456 7.83562C17.8868 7.29235 14.2381 7.66035 10.8493 8.90541C8.69365 9.66688 6.74361 10.9172 5.15199 12.5584C3.80952 13.9556 3.18461 15.6751 2.85584 17.5251C2.39791 20.0952 2.46445 22.6719 2.83496 25.2668L4.0013 25.4847C4.0013 25.0346 4.0013 24.5988 4.0013 24.1631C3.96347 19.3085 6.46836 15.7613 11.0581 14.1735C13.726 13.2498 16.4788 13.0189 19.2772 13.1624C21.4834 13.2759 23.6399 13.6204 25.6895 14.4671C29.135 15.9022 31.3516 18.3588 31.9804 22.1122C32.0691 22.6341 32.1031 23.1689 32.1683 23.7469C32.3483 23.6347 32.5101 23.5382 32.6667 23.4351C39.3085 19.0659 48.2922 22.8611 49.7821 30.6667C50.3265 33.5617 49.7093 36.5547 48.064 38.9982C46.4186 41.4416 43.8775 43.1391 40.9902 43.7234C40.8608 43.7481 40.7302 43.7655 40.5988 43.7756C40.1566 43.8121 39.8813 43.5956 39.7743 43.182C39.6817 42.8284 39.94 42.4462 40.3405 42.3353C40.668 42.244 41.0072 42.1957 41.3359 42.1083C43.4358 41.5479 45.284 40.293 46.5794 38.5479C47.8748 36.8028 48.5411 34.6705 48.4697 32.4984C48.3144 27.7652 44.8963 23.91 40.1905 23.165C35.1481 22.3653 30.1448 25.9348 29.2929 30.9785C29.1716 31.6934 28.878 32.0731 28.1592 32.2035C27.4403 32.334 26.7541 32.5519 25.9256 32.7645C26.8598 33.0033 27.6582 33.2146 28.4605 33.409C28.9067 33.5173 29.1337 33.7586 29.2172 34.2335C29.9609 38.4579 32.9367 41.4925 37.0972 42.3001C37.6125 42.4005 37.8734 42.7228 37.8056 43.1742C37.7378 43.6256 37.4025 43.8447 36.8519 43.7521C34.394 43.3359 32.3262 42.1866 30.6301 40.3692C30.1566 39.8643 29.7482 39.2994 29.2772 38.7215C29.161 38.9526 29.0303 39.1761 28.8858 39.3907C27.9896 40.5649 27.0737 41.7247 26.184 42.9028C26.0421 43.0801 25.9652 43.3006 25.9661 43.5277C26.167 45.2877 26.4005 47.0424 26.6184 48.7997C26.6352 48.9296 26.6448 49.0602 26.6471 49.1911C26.6471 49.6569 26.3953 49.9739 25.987 50.0026C25.5786 50.0313 25.2537 49.7782 25.1911 49.3216C25.0215 48.0652 24.865 46.8076 24.7019 45.5512C24.6575 45.2003 24.6093 44.8506 24.5506 44.411C24.274 44.621 24.0404 44.7828 23.8239 44.9641C22.3536 46.2009 20.6849 46.818 18.7358 46.6875C17.7965 46.6249 16.8467 46.6993 15.9061 46.6367C14.3522 46.5336 13.152 45.6464 11.9752 44.7358C11.8447 44.6393 11.7247 44.5479 11.546 44.4136C11.3633 45.8304 11.1885 47.1768 11.015 48.5232C10.9798 48.7971 10.9563 49.0737 10.9106 49.3451C10.9003 49.4423 10.8707 49.5365 10.8235 49.6222C10.7763 49.7079 10.7126 49.7833 10.6359 49.844C10.5593 49.9047 10.4713 49.9496 10.3771 49.9759C10.2829 50.0023 10.1844 50.0096 10.0874 49.9974C9.99375 49.9897 9.90264 49.9631 9.81963 49.9191C9.73662 49.875 9.66346 49.8145 9.60461 49.7413C9.54576 49.668 9.50246 49.5835 9.47735 49.493C9.45224 49.4024 9.44586 49.3077 9.45858 49.2146C9.55251 48.244 9.68558 47.2772 9.80561 46.3105C9.92564 45.3438 10.0483 44.4083 10.1513 43.456C10.1721 43.3021 10.1318 43.1461 10.0391 43.0215C7.65558 40.574 5.99087 37.7247 5.2394 34.3914C4.70711 34.334 4.19569 34.334 3.71559 34.2166C1.78995 33.7508 0.825832 32.3549 0.306588 30.5649C0.168297 30.0874 0.100457 29.5903 0 29.1011V28.0274C0.0376933 27.9579 0.0661987 27.8838 0.084801 27.8069C0.170907 26.9589 0.491846 26.2414 1.20548 25.7299C1.25555 25.6754 1.29316 25.6107 1.31569 25.5401C1.33822 25.4696 1.34513 25.395 1.33594 25.3216C1.00065 22.8428 0.944553 20.364 1.29289 17.8852C1.57469 15.9022 2.12133 13.9987 3.36073 12.381C4.67841 10.6588 6.38095 9.38813 8.30137 8.40835C9.06327 8.01696 9.85779 7.69732 10.5297 7.39335C10.591 6.54403 10.5297 5.72864 10.728 4.97717C11.3229 2.66406 12.9811 1.3242 15.1285 0.521853C15.7599 0.287019 16.4331 0.173516 17.0933 0L19.2381 0ZM17.1703 14.6027C15.2843 14.6028 13.4113 14.9145 11.6269 15.5251C8.71102 16.5532 6.56099 18.3666 5.77821 21.4742C5.19504 23.7965 5.42727 26.0926 6.19439 28.3366C6.30583 28.6729 6.3575 29.0262 6.34703 29.3803C6.29746 30.9289 6.33529 32.4684 6.6758 33.987C7.60731 38.1292 9.95434 41.3203 13.2877 43.8526C14.1918 44.5375 15.1246 45.1572 16.3118 45.1768C17.499 45.1963 18.6601 45.2498 19.8226 45.152C20.5156 45.1044 21.1881 44.8968 21.7873 44.5453C24.5049 42.8271 26.651 40.5571 28.1409 37.6856C28.3718 37.2407 28.4579 36.8467 28.2361 36.364C28.0648 35.9601 27.9451 35.5363 27.88 35.1024C27.8304 34.8258 27.6882 34.7319 27.4507 34.6732C26.668 34.4788 25.8748 34.2818 25.0933 34.0744C24.4318 33.8956 24.0417 33.4038 24.03 32.7828C24.0183 32.1618 24.411 31.6334 25.092 31.4455C25.8265 31.242 26.5623 31.0372 27.3098 30.878C27.6712 30.7997 27.8408 30.6484 27.9204 30.2753C28.3131 28.4887 29.1474 26.8291 30.347 25.4481C30.5097 25.2522 30.6093 25.0116 30.6327 24.758C30.818 21.1233 29.4586 17.8291 25.6517 16.0444C23.2003 14.8963 20.578 14.6119 17.1703 14.6027ZM24.2805 6.88454C24.2805 6.51402 24.3053 6.21135 24.2805 5.91389C24.15 4.63796 23.5134 3.64514 22.514 2.89106C20.7945 1.59295 18.8402 1.23027 16.7502 1.61383C15.0241 1.92955 13.5538 2.70189 12.604 4.24527C12.1044 5.05675 11.8852 5.94129 12.1226 6.91976C16.1526 5.85519 20.1644 5.84214 24.2805 6.88454ZM4.84149 32.8167C4.84149 31.9556 4.79583 31.1572 4.85323 30.3679C4.91455 29.5251 4.7319 28.7462 4.54403 27.9348C4.38748 27.2577 4.00261 27.0372 3.45205 26.8845C3.26462 26.8317 3.07301 26.7951 2.87932 26.775C2.27789 26.7175 1.74168 27.015 1.64384 27.5577C1.34247 29.2172 1.58643 30.7723 2.76451 32.0574C3.02016 32.3479 3.34461 32.5697 3.70816 32.7023C4.0717 32.835 4.46272 32.8743 4.8454 32.8167H4.84149Z" fill="#212124"/>
<path d="M30.2753 32.7814C30.271 31.6616 30.4875 30.5518 30.9122 29.5156C31.337 28.4794 31.9618 27.537 32.7509 26.7423C33.5399 25.9477 34.4779 25.3163 35.5111 24.8842C36.5443 24.4522 37.6525 24.228 38.7724 24.2244C43.5043 24.2244 47.3582 28.0678 47.3438 32.7775C47.3295 37.4873 43.456 41.3085 38.7333 41.2981C34.1188 41.2889 30.274 37.4155 30.2753 32.7814ZM45.7704 33.4338C46.2414 31.0737 44.7998 28.1513 42.4475 26.724C41.2154 25.9816 39.7864 25.6322 38.3507 25.7221C36.915 25.8121 35.5408 26.3372 34.411 27.2276C32.2427 28.9315 31.4456 31.8865 31.8435 33.4351C33.0307 33.2733 34.2192 33.1193 35.4038 32.938C35.4881 32.9192 35.5671 32.8817 35.6349 32.8281C35.7026 32.7746 35.7574 32.7065 35.7952 32.6288C36.3106 31.075 37.2538 29.7717 38.201 28.4722C38.5193 28.0365 39.0451 28.0235 39.3686 28.4448C40.338 29.7116 41.2473 31.0228 41.7548 32.5531C41.8513 32.8454 41.9857 32.9302 42.2505 32.9641C43.4247 33.1167 44.5963 33.2798 45.7704 33.4377V33.4338ZM45.5004 34.8871C44.2584 34.7267 43.0725 34.5662 41.8839 34.4305C41.7913 34.4201 41.6452 34.561 41.5839 34.6666C40.2218 36.998 37.3738 36.9902 36.0053 34.6536C35.9587 34.5912 35.8986 34.5402 35.8294 34.5045C35.7603 34.4688 35.6839 34.4493 35.6061 34.4475C34.895 34.5062 34.1853 34.591 33.4782 34.6901C33.0229 34.754 32.5741 34.8571 32.1162 34.9445C32.9994 37.7834 35.8278 39.816 38.8063 39.8108C41.7848 39.8056 44.6185 37.7717 45.5004 34.891V34.8871ZM38.8885 30.1904L38.7202 30.1813C38.2636 31.015 37.7704 31.833 37.3595 32.6888C37.0046 33.4285 37.2199 34.1317 37.837 34.5923C38.1136 34.7953 38.4472 34.9059 38.7903 34.9085C39.1334 34.9111 39.4686 34.8054 39.7483 34.6066C40.3575 34.1617 40.5871 33.4325 40.2427 32.7084C39.8331 31.8499 39.3438 31.0293 38.8885 30.1918V30.1904Z" fill="#212124"/>
<path d="M18.1591 38.878C17.2837 38.7306 16.4631 38.6171 15.6594 38.4462C15.1232 38.3327 14.8571 37.9152 14.9693 37.5017C15.0998 37.049 15.5029 36.8637 16.0665 37.0216C17.4021 37.4011 18.816 37.4079 20.1552 37.0411C20.3378 36.9771 20.5307 36.9479 20.724 36.955C20.8894 36.9685 21.0445 37.0406 21.1614 37.1583C21.2784 37.2759 21.3495 37.4315 21.362 37.5969C21.3786 37.6861 21.3772 37.7778 21.3577 37.8664C21.3383 37.9551 21.3012 38.0389 21.2488 38.113C21.1964 38.1871 21.1296 38.2499 21.0525 38.2977C20.9753 38.3456 20.8894 38.3774 20.7997 38.3914C19.9138 38.578 19.0202 38.7228 18.1591 38.878Z" fill="#212124"/>
<path d="M17.4077 31.0502C17.4077 30.5949 17.3959 30.137 17.4077 29.6869C17.4259 29.1911 17.713 28.8806 18.1305 28.8663C18.5714 28.8506 18.8911 29.1624 18.9015 29.6843C18.9198 30.5975 18.9224 31.5016 18.9015 32.411C18.8897 32.9146 18.5923 33.1937 18.1578 33.1937C17.7234 33.1937 17.4468 32.9041 17.4064 32.411C17.4064 32.3784 17.4064 32.3457 17.4064 32.3131L17.4077 31.0502Z" fill="#212124"/>
<path d="M24.3679 29.1898C23.8004 29.0307 23.2616 28.9158 22.7515 28.7254C22.2688 28.5466 22.0992 28.1109 22.2818 27.7117C22.4645 27.3125 22.8689 27.1781 23.3112 27.3712C23.6264 27.5222 23.9714 27.6006 24.3209 27.6006C24.6705 27.6006 25.0155 27.5222 25.3307 27.3712C25.7665 27.1676 26.1787 27.3242 26.3575 27.7078C26.5362 28.0913 26.3979 28.514 25.9374 28.7006C25.4403 28.908 24.8989 29.0293 24.3679 29.1898Z" fill="#212124"/>
<path d="M11.8369 29.1938C11.2681 29.0307 10.7149 28.9093 10.1918 28.7097C9.72471 28.531 9.57337 28.12 9.7495 27.73C9.92562 27.3399 10.3235 27.169 10.7632 27.3634C11.0849 27.5198 11.438 27.6011 11.7958 27.6011C12.1536 27.6011 12.5067 27.5198 12.8284 27.3634C12.9163 27.3244 13.011 27.3031 13.1071 27.3007C13.2033 27.2983 13.2989 27.3149 13.3886 27.3495C13.4783 27.3841 13.5603 27.436 13.63 27.5023C13.6996 27.5686 13.7555 27.6479 13.7945 27.7358C13.8335 27.8237 13.8548 27.9184 13.8571 28.0145C13.8595 28.1107 13.8429 28.2063 13.8084 28.296C13.7738 28.3857 13.7218 28.4677 13.6556 28.5374C13.5893 28.607 13.5099 28.6629 13.422 28.7019C12.9158 28.9028 12.3836 29.0268 11.8369 29.1938Z" fill="#212124"/>
<path d="M28.2883 22.7959C28.1513 22.9785 28.0417 23.272 27.8487 23.3451C27.6138 23.4338 27.2224 23.4416 27.0489 23.3007C26.7622 23.0488 26.4234 22.8632 26.0568 22.757C25.6901 22.6508 25.3046 22.6266 24.9276 22.6863C24.5218 22.7437 24.2427 22.5154 24.1448 22.1174C24.0483 21.7417 24.2753 21.3934 24.6771 21.2551C25.649 20.9224 27.4573 21.4638 28.0587 22.2792C28.1511 22.4439 28.228 22.6169 28.2883 22.7959Z" fill="#212124"/>
<path d="M10.6875 21.1572C10.9605 21.1799 11.2314 21.2235 11.4977 21.2877C11.6669 21.3286 11.8131 21.4346 11.9047 21.5825C11.9963 21.7305 12.0258 21.9087 11.987 22.0783C11.9191 22.4762 11.6399 22.7437 11.2342 22.6902C10.4097 22.5819 9.70647 22.7671 9.07633 23.3216C9.00424 23.3821 8.92072 23.4275 8.83075 23.455C8.74077 23.4826 8.64618 23.4918 8.55258 23.482C8.45899 23.4723 8.36831 23.4438 8.28593 23.3983C8.20355 23.3529 8.13116 23.2913 8.07307 23.2172C7.95049 23.0733 7.88875 22.8872 7.90093 22.6985C7.9131 22.5098 7.99823 22.3332 8.1383 22.2062C8.81552 21.5326 9.73239 21.1553 10.6875 21.1572Z" fill="#212124"/>
</svg>
