<svg width="50" height="46" viewBox="0 0 50 46" fill="none" xmlns="http://www.w3.org/2000/svg">
<path d="M31.3832 21.4218C31.538 22.293 31.6727 23.1723 31.8504 24.0341C32.4792 27.0974 32.3473 30.127 31.5811 33.1594C30.8284 36.154 30.6089 39.2187 30.6386 42.2995C30.652 43.9234 29.6421 45.1676 28.0802 45.5311C27.9338 45.567 27.7839 45.5865 27.6332 45.589C25.8827 45.589 24.1322 45.6106 22.3912 45.589C20.8144 45.5675 19.3575 44.1509 19.371 42.5782C19.4066 39.0178 19.0023 35.4667 18.1672 32.0054C17.4683 29.1145 17.6488 26.2154 18.2937 23.3204C18.4284 22.6943 18.4971 22.0507 18.5967 21.4151L18.4392 21.3626C18.3193 21.57 18.1968 21.776 18.0797 21.9847C16.9122 24.0623 14.914 24.9766 12.6034 24.5027C12.4511 24.4641 12.2899 24.4833 12.151 24.5565C10.0612 26.0902 7.8906 25.9515 5.77658 24.7208C3.44577 23.3649 2.18678 21.3047 2.22314 18.543C2.20985 18.4258 2.21807 18.3072 2.24737 18.1929C2.57996 17.3944 2.26488 16.7441 1.8892 16.0385C0.611507 13.6593 -0.0386774 10.9937 4.70128e-05 8.29335C0.0498679 3.67347 4.09883 0.00153476 8.68504 0.440497C10.01 0.579946 11.281 1.04028 12.3879 1.78162C13.2162 2.3226 14.0739 2.81708 14.9571 3.26278C16.278 3.92123 17.5505 3.70713 18.6735 2.79824C20.0025 1.72103 21.4513 0.927934 23.1425 0.610158C26.0308 0.0715533 28.6632 0.669404 30.9429 2.51951C32.4631 3.75426 33.9833 3.96432 35.6678 2.98271C36.306 2.61107 36.9497 2.24752 37.5596 1.83548C42.5094 -1.51464 49.1127 1.39787 49.895 7.32656C50.3138 10.4949 49.4911 13.4559 48.0099 16.2391C47.6995 16.7969 47.5942 17.4458 47.7123 18.0731C48.0274 20.1938 47.2814 22.0224 45.7949 23.5143C44.0767 25.2405 42.0179 26.0538 39.57 25.4196C39.0314 25.285 38.5237 24.9753 38.0457 24.6764C37.9366 24.5938 37.8108 24.536 37.6771 24.5069C37.5434 24.4778 37.405 24.4782 37.2715 24.508C35.1238 24.9591 33.1081 24.0421 32.0066 22.1409C31.8598 21.8864 31.7171 21.6279 31.5717 21.372L31.3832 21.4218ZM4.68321 14.4819C3.74066 12.5416 3.17377 10.5299 3.23975 8.39434C3.29631 6.52942 4.13114 5.05365 5.79812 4.17303C7.43952 3.30857 9.04322 3.52266 10.6213 4.48003C11.8803 5.24216 13.1959 5.91272 14.5114 6.57116C15.2506 6.9428 15.8916 7.39119 16.3332 8.09811C16.8045 8.85081 16.9526 9.67352 16.9378 10.5515C16.8961 13.0613 17.4683 15.4231 18.8566 17.5291C20.1088 19.4263 20.4347 21.434 19.9055 23.6274C19.2175 26.4793 19.1555 29.3407 19.8665 32.202C20.4111 34.3144 20.7476 36.4751 20.871 38.6531C20.9275 39.865 20.9329 41.0701 20.9639 42.2793C20.9881 43.2515 21.5873 43.883 22.5608 43.9463C22.5608 43.8116 22.5797 43.677 22.5797 43.5491C22.5797 41.0957 22.6147 38.641 22.5676 36.189C22.5312 34.3106 22.4127 32.4309 22.2902 30.5552C22.1798 28.864 21.9441 27.1782 21.8862 25.487C21.7947 22.6323 21.7933 19.7751 21.7731 16.9191C21.7543 14.3702 20.8211 12.2534 18.8714 10.5905C18.6256 10.3879 18.407 10.1544 18.221 9.8957C17.2031 8.41454 17.8077 6.51865 19.4464 6.14297C19.9096 6.03794 20.4509 6.11739 20.9275 6.23588C22.7117 6.68292 24.5025 7.05456 26.3472 6.76641C27.4042 6.60213 28.4464 6.34226 29.4927 6.1147C30.6857 5.85617 31.8464 6.50788 32.1588 7.68607C32.4712 8.86427 32.047 9.83107 31.1314 10.5918C29.1736 12.244 28.2297 14.3621 28.2243 16.911C28.2243 19.0452 28.2525 21.1795 28.2054 23.3137C28.1718 24.8393 28.0452 26.3649 27.9361 27.8918C27.8136 29.5655 27.5779 31.2352 27.5322 32.9103C27.4433 36.4206 27.4487 39.9323 27.4164 43.444C27.4164 43.6164 27.4312 43.7901 27.4393 43.9678C28.5084 43.8184 29.047 43.2245 29.0281 42.1931C28.9743 39.0961 29.1911 36.0099 29.9586 33.0018C30.7732 29.8106 30.8405 26.6436 30.0609 23.4416C29.6004 21.5565 29.7633 19.7131 30.8392 18.065C32.4065 15.6682 33.1242 13.0627 33.0825 10.2108C33.0596 8.5061 33.9281 7.31982 35.4793 6.5752C36.8296 5.94741 38.142 5.24108 39.4097 4.45983C42.1714 2.70129 45.6387 3.94681 46.5638 7.0963C46.9515 8.41319 46.8021 9.73681 46.4951 11.0281C46.2137 12.209 45.7895 13.3562 45.4179 14.5573L46.5584 15.4474C47.742 13.6969 48.5781 9.98322 48.3088 7.70762C47.7406 2.91539 42.5727 0.507823 38.5345 3.14564C37.806 3.6223 37.0762 4.12186 36.2858 4.4733C35.4954 4.82474 34.6566 5.1304 33.8123 5.22331C32.3513 5.38758 31.1045 4.75472 29.9936 3.83236C28.4854 2.56216 26.5442 1.92475 24.5766 2.05362C22.779 2.14787 21.2103 2.83055 19.8072 3.9724C18.0743 5.38758 16.1582 5.6892 14.1276 4.67258C13.1272 4.17572 12.1725 3.57114 11.2192 2.98002C7.32641 0.556298 2.17601 3.08639 1.69665 7.64837C1.49064 9.60889 1.85015 11.4913 2.48571 13.332C2.73885 14.0645 3.07817 14.7687 3.38383 15.4972L4.68321 14.4819ZM25.8073 43.957V43.3713C25.8073 40.5154 25.7817 37.6594 25.8261 34.8048C25.8504 33.2792 25.985 31.7536 26.0954 30.2267C26.2193 28.5368 26.4455 26.851 26.4994 25.1584C26.591 22.289 26.5357 19.4142 26.634 16.5407C26.6855 15.4885 26.8738 14.4474 27.1942 13.4438C27.7126 11.7687 28.7683 10.4235 30.1148 9.30324C30.5914 8.90601 30.7584 8.39434 30.5524 8.02809C30.2548 7.5016 29.8132 7.71435 29.3957 7.81265C29.3796 7.81265 29.3648 7.82611 29.3486 7.8315C27.3571 8.3701 25.3373 8.67576 23.2785 8.36068C22.2538 8.20314 21.2453 7.94326 20.2314 7.72647C19.6066 7.59182 19.1919 8.0254 19.4235 8.62459C19.5562 8.93504 19.7601 9.20994 20.0186 9.42711C22.2175 11.3688 23.3701 13.7858 23.3849 16.7292C23.393 18.3451 23.3526 19.9609 23.3957 21.5673C23.4468 23.513 23.5411 25.4587 23.6569 27.403C23.8144 30.0826 24.0797 32.7581 24.1713 35.4404C24.2615 38.0916 24.1928 40.7483 24.1928 43.4023C24.1928 43.5814 24.1928 43.7618 24.1928 43.9638L25.8073 43.957ZM36.4824 22.9959C36.3478 22.2796 36.1296 21.6494 36.1081 21.0071C35.9734 17.0591 39.3572 13.7548 43.3052 13.946C43.5745 13.9595 43.7576 13.9554 43.9017 13.6605C44.6896 12.0973 45.1145 10.3763 45.1445 8.62594C45.158 7.31309 44.6059 6.23319 43.4062 5.60302C42.267 4.99978 41.2073 5.26774 40.1395 5.93292C38.9464 6.67615 37.7104 7.34833 36.438 7.94595C35.1548 8.55054 34.7118 9.15781 34.6673 10.5636C34.6502 11.6006 34.5634 12.6352 34.4074 13.6605C34.1072 15.4487 33.3868 17.0874 32.4106 18.6157C32.3015 18.7854 32.2046 19.0816 32.2759 19.2284C32.6741 20.0413 33.1178 20.8312 33.6049 21.5942C34.2795 22.6229 35.2854 23.0269 36.4824 22.9959ZM13.5567 22.9649C14.6434 23.0996 15.8162 22.5381 16.4598 21.4959C16.9095 20.7688 17.3148 20.0147 17.7121 19.258C17.7408 19.1791 17.753 19.095 17.7479 19.0112C17.7428 18.9273 17.7205 18.8454 17.6824 18.7706C17.4131 18.2656 17.0954 17.793 16.8355 17.2894C15.7648 15.1872 15.2419 12.8488 15.3153 10.4909C15.3435 9.18205 14.8009 8.5263 13.6362 7.96884C12.3038 7.34383 11.0098 6.64016 9.76091 5.86155C7.73575 4.57967 5.27702 5.56801 4.9377 7.94595C4.64147 10.029 5.28106 11.9599 6.194 13.8033C6.23843 13.8921 6.43502 13.9379 6.56564 13.9379C7.11501 13.9783 7.67516 13.9474 8.21646 14.0322C11.3404 14.5196 13.9364 17.5573 13.8947 20.7149C13.8812 21.4609 13.6766 22.1961 13.5567 22.9649ZM46.1706 18.8756C46.1706 16.8154 44.4834 15.3019 42.4731 15.5659C41.2633 15.717 40.1389 16.2685 39.2788 17.1325C38.4186 17.9965 37.8723 19.1234 37.7266 20.3339C37.6081 21.1584 37.8164 21.9967 38.3072 22.6698C38.798 23.343 39.5323 23.7977 40.3536 23.9371C43.149 24.4232 46.1638 21.8015 46.1706 18.8756ZM12.295 20.6772C12.2856 18.2306 10.2362 15.9954 7.62399 15.5834C7.12466 15.4997 6.61273 15.5334 6.12866 15.6817C5.64459 15.8301 5.20166 16.089 4.8349 16.438C4.46813 16.787 4.18758 17.2165 4.01543 17.6926C3.84327 18.1687 3.78424 18.6784 3.84299 19.1812C3.97385 20.2879 4.43657 21.3291 5.1703 22.1679C5.90404 23.0066 6.87443 23.6037 7.95389 23.8806C10.317 24.4542 12.3031 22.9892 12.295 20.6772Z" fill="#212124"/>
</svg>
