<svg width="50" height="46" viewBox="0 0 50 46" fill="none" xmlns="http://www.w3.org/2000/svg">
<path d="M50 28.4731C49.8436 29.2334 49.751 30.0119 49.5215 30.75C47.8171 36.2479 44.1318 39.5185 38.4435 40.4861C37.0277 40.7152 35.5818 40.682 34.178 40.3883C34.0398 40.3509 33.8939 40.3533 33.7571 40.3953C33.6202 40.4373 33.4981 40.5171 33.4047 40.6256C31.8202 42.2374 30.2163 43.8323 28.6162 45.4297C27.955 46.0896 27.4895 46.0909 26.8335 45.4297C23.9455 42.5443 21.0588 39.6576 18.1733 36.7695C18.0429 36.6391 17.9399 36.4996 17.8004 36.3366C17.6282 36.497 17.4991 36.6091 17.3779 36.7278L8.71764 45.3867C8.01345 46.0909 7.55964 46.0922 6.86327 45.3958C4.74549 43.285 2.62901 41.1711 0.513839 39.0542C-0.172093 38.3683 -0.172093 37.9223 0.513839 37.2285C3.33059 34.4092 6.14909 31.592 8.96932 28.777C9.15188 28.5931 9.36053 28.4353 9.59787 28.2319C9.42313 28.0441 9.30968 27.9163 9.1884 27.7937C7.67048 26.2536 6.10431 24.7566 4.64377 23.163C2.75159 21.0987 1.44884 18.711 1.07328 15.8877C0.671629 12.8545 1.41233 10.0782 3.12977 7.57567C5.69745 3.85652 9.30707 1.61354 13.6443 0.596383C19.1031 -0.688109 24.1537 0.429464 28.641 3.74567C31.3534 5.75391 33.4516 8.30986 34.2288 11.7239C34.397 12.4633 34.4805 13.2222 34.5848 13.8573C35.9463 13.9121 37.2986 13.8573 38.6196 14.0386C44.0875 14.7897 48.5838 19.0357 49.704 24.4214C49.8096 24.9248 49.9022 25.4321 50.0013 25.9367L50 28.4731ZM36.6335 15.8382C30.3623 15.8264 25.2165 20.9331 25.2048 27.1834C25.1954 30.2128 26.3899 33.1218 28.5254 35.2704C30.6608 37.4191 33.5624 38.6315 36.5918 38.6408C39.6211 38.6502 42.5301 37.4557 44.6788 35.3202C46.8275 33.1848 48.0398 30.2832 48.0492 27.2538C48.0596 20.9748 42.936 15.8538 36.6335 15.8382ZM7.84001 43.4658C7.86478 43.4436 7.94172 43.3837 8.00953 43.3145C13.0154 38.3087 18.0168 33.3025 23.014 28.2958C23.1542 28.1297 23.2362 27.9222 23.2474 27.705C23.3022 27.0256 23.2591 26.3345 23.3517 25.6629C24.035 20.6984 26.6953 17.1748 31.1917 15.0114C31.6455 14.7936 32.3145 14.6828 32.4957 14.3268C32.7018 13.9147 32.514 13.2835 32.4253 12.7541C32.2351 11.587 31.8254 10.4666 31.2178 9.45221C21.6208 19.0448 12.0551 28.6118 2.52078 38.1531L7.84001 43.4658ZM30.0089 7.7452C23.8642 0.227336 11.6987 0.192126 5.49141 7.74911C6.95064 9.20313 8.42162 10.6519 9.86651 12.1268C10.1717 12.4411 10.4012 12.4985 10.8237 12.3068C12.8039 11.395 14.945 10.8844 17.1236 10.8045C19.7941 10.7027 22.4505 11.2392 24.8722 12.3694C25.1409 12.4998 25.3065 12.4607 25.506 12.2494C25.9624 11.7656 26.4423 11.3027 26.9144 10.8319C27.9446 9.80343 28.9761 8.77453 30.0089 7.7452ZM16.2603 21.4378L4.28255 9.45351C3.19274 11.244 2.73708 13.3491 2.98893 15.43C3.27061 17.7981 4.31254 19.8481 5.89175 21.5851C7.47096 23.3221 9.20013 24.9822 10.8641 26.6774C10.8965 26.6998 10.9335 26.7145 10.9723 26.7205L16.2603 21.4378ZM27.6603 43.4254L31.5073 39.628C27.483 37.848 24.8462 34.8095 23.6425 30.5896L19.2348 34.9973L27.6603 43.4254ZM23.6699 13.9916C19.7043 12.3211 15.7791 12.3211 11.8669 13.9786L17.7795 19.8729L23.6699 13.9916Z" fill="#212124"/>
<path d="M40.2287 30.8909C40.2287 31.7111 40.2287 32.5222 40.2287 33.3346C40.2287 34.1471 39.8649 34.5213 39.0394 34.5226C37.4129 34.5226 35.7867 34.5226 34.161 34.5226C33.3968 34.5226 33.0304 34.1536 33.0252 33.3842C33.0252 32.5561 33.0252 31.7281 33.0252 30.827H32.1384C29.2134 30.84 29.2943 31.0747 29.3242 27.9893C29.3334 26.9644 29.3242 25.9407 29.3242 24.9157C29.3242 24.0028 29.6776 23.6468 30.5905 23.6377C31.3833 23.6299 32.1762 23.6377 33.0225 23.6377C33.0225 22.777 33.0225 21.9685 33.0225 21.16C33.0225 20.3228 33.3668 19.9707 34.1962 19.9681C35.8071 19.9612 37.4155 19.9612 39.0212 19.9681C39.8806 19.9681 40.2131 20.3202 40.217 21.1991C40.217 21.992 40.217 22.7849 40.217 23.639C41.0229 23.639 41.7819 23.639 42.5408 23.639C43.5841 23.639 43.9127 23.9755 43.914 25.0109C43.914 26.5236 43.914 28.0363 43.914 29.549C43.914 30.5022 43.5815 30.827 42.6178 30.8296C41.8692 30.8296 41.1211 30.833 40.3735 30.84C40.3236 30.852 40.2751 30.869 40.2287 30.8909ZM34.9851 32.5457H38.2596C38.2596 31.6981 38.2531 30.8726 38.2596 30.0484C38.2661 29.2243 38.6117 28.867 39.4476 28.8631C40.2574 28.8631 41.0659 28.8631 41.9031 28.8631V25.6916C41.8497 25.6642 41.821 25.6381 41.7936 25.6381C41.0616 25.6312 40.33 25.6264 39.5989 25.6238C38.57 25.6238 38.2609 25.3147 38.2583 24.2871C38.2583 23.5125 38.2583 22.7366 38.2583 21.9516H35.0543C35.0269 22.005 34.9995 22.0324 34.9995 22.0611C34.9925 22.8088 34.9878 23.5564 34.9851 24.3041C34.9851 25.3069 34.6709 25.6225 33.6811 25.6238H31.3455V28.8683C32.1906 28.8683 33.0004 28.8683 33.8102 28.8683C34.62 28.8683 34.976 29.2112 34.9838 30.0158C34.9917 30.8504 34.9851 31.6707 34.9851 32.5457Z" fill="#212124"/>
</svg>
