<svg width="48" height="50" viewBox="0 0 48 50" fill="none" xmlns="http://www.w3.org/2000/svg">
<path d="M38.6936 0C39.2584 0.130439 39.8297 0.2374 40.3893 0.391318C42.6717 1.04286 44.6604 2.46012 46.0211 4.40497C47.3818 6.34983 48.0317 8.70376 47.8615 11.0713C47.6914 13.4388 46.7116 15.6756 45.0867 17.4059C43.4618 19.1361 41.2909 20.2544 38.9388 20.5729C33.4277 21.3555 28.1697 17.4084 27.3597 11.8817C27.119 10.3666 27.2283 8.81656 27.6793 7.35026C27.7287 7.22422 27.7392 7.08626 27.7095 6.95419C27.6797 6.82212 27.611 6.702 27.5123 6.60936C27.0577 6.08281 26.4572 5.70271 25.7868 5.517C25.1164 5.33128 24.406 5.34828 23.7452 5.56585C22.3756 6.01456 21.3595 7.24982 21.3412 8.74465C21.2943 12.4857 21.3243 16.2293 21.3243 19.9716C21.3243 19.9963 21.353 20.0224 21.3882 20.0837C22.1108 19.4602 22.9117 18.9854 23.8587 18.8185C24.1783 18.7616 24.502 18.7307 24.8266 18.7259C25.0156 18.7156 25.2012 18.7788 25.3447 18.9023C25.4881 19.0258 25.5782 19.2001 25.5961 19.3885C25.6064 19.5858 25.5399 19.7794 25.4105 19.9287C25.2811 20.078 25.099 20.1715 24.9022 20.1894C24.6779 20.222 24.4457 20.2064 24.2239 20.2507C22.5282 20.5977 21.336 21.9464 21.3282 23.6904C21.3034 29.1088 21.3138 34.5273 21.3282 39.9457C21.3282 40.7949 21.8225 41.3023 22.66 41.404C23.1491 41.4627 23.4596 41.7654 23.4426 42.1697C23.4269 42.6028 23.0774 42.9054 22.5634 42.8611C22.1721 42.8258 21.7808 42.7176 21.3321 42.6328C21.2499 44.2528 21.7234 45.6955 22.8713 46.8929C23.6138 47.653 24.5647 48.1763 25.6042 48.3969C26.6437 48.6174 27.7251 48.5253 28.7123 48.1321C29.7026 47.723 30.5515 47.0329 31.1541 46.1469C31.7568 45.261 32.0869 44.2181 32.1038 43.1467C32.1038 42.6771 32.049 42.4136 31.4646 42.3145C30.0298 42.0706 28.8206 41.3532 27.8241 40.2888C27.3649 39.7983 27.3166 39.334 27.6754 39.0131C28.0341 38.6922 28.4449 38.794 28.8963 39.2635C31.5194 41.9962 36.0926 41.3362 37.684 37.9735C38.4353 36.386 38.434 34.7712 37.6527 33.1772C37.56 32.9868 37.4974 32.8107 37.1948 32.8811C34.7608 33.4525 31.9303 31.9315 31.2455 28.9223C30.2846 29.0864 29.2965 28.9497 28.4162 28.531C28.1773 28.4166 27.9907 28.2156 27.8945 27.9688C27.8384 27.7692 27.9467 27.4066 28.1084 27.2905C28.224 27.2159 28.3541 27.1666 28.4901 27.1459C28.6261 27.1252 28.765 27.1336 28.8976 27.1705C29.6659 27.4692 30.4381 27.5918 31.2363 27.4079C31.7069 27.3046 32.1507 27.1041 32.5393 26.8192C32.9279 26.5344 33.2527 26.1716 33.4929 25.7539C33.5347 25.6848 33.5699 25.6118 33.6129 25.5426C33.8738 25.1187 34.2651 24.9922 34.6408 25.2061C35.0165 25.42 35.1208 25.827 34.9017 26.2653C34.4988 27.0899 33.8582 27.775 33.0625 28.2323C32.7403 28.4162 32.696 28.6093 32.8016 28.9406C33.2386 30.4211 34.4778 31.4072 36.0626 31.5089C37.4687 31.5989 38.854 30.695 39.4384 29.3071C39.7134 28.6414 39.7756 27.9069 39.6166 27.2044C39.4576 26.5019 39.085 25.8658 38.5501 25.3835C37.8131 24.7117 37.8314 24.4822 38.5501 23.7765C38.8506 23.4583 39.1156 23.1084 39.3405 22.733C39.6327 22.2843 39.9993 22.1277 40.3958 22.3351C40.7923 22.5425 40.9006 22.9651 40.6488 23.4295C40.4323 23.8208 40.1662 24.1978 39.8949 24.6243C40.384 25.1605 40.749 25.7979 40.9639 26.4912C41.1787 27.1844 41.2382 27.9165 41.138 28.6353C40.9489 30.1615 40.1401 31.3211 38.867 32.2276C39.9536 34.389 40.0762 36.5895 38.944 38.7613C37.8118 40.9332 35.9778 42.0967 33.6129 42.4593C33.5151 46.2525 31.7711 48.7817 28.6563 49.7235C26.0344 50.5165 22.5113 49.6765 20.5886 46.2812C19.6338 47.9769 18.2772 49.1652 16.4067 49.7156C15.0269 50.1321 13.55 50.096 12.1922 49.6126C9.77647 48.7752 7.36595 46.2029 7.60987 42.4684C5.25022 42.1045 3.39668 40.9371 2.26969 38.7887C1.14269 36.6404 1.234 34.4477 2.32838 32.242C1.0579 31.3772 0.26092 30.181 0.0509123 28.6614C-0.159095 27.1418 0.272659 25.7657 1.3227 24.5904C0.337879 23.4686 -0.0677875 22.1825 0.0183025 20.7125C0.160481 18.4454 2.27229 16.3336 4.54194 16.2084C5.64545 16.1484 6.67723 16.348 7.62031 16.9336C8.10684 17.2363 8.24511 17.6419 8.01162 18.0306C7.77814 18.4193 7.3516 18.4872 6.86115 18.2028C5.6285 17.4854 4.3828 17.4554 3.1658 18.2028C1.99185 18.9241 1.42705 20.0224 1.49488 21.4064C1.51515 21.8711 1.63144 22.3266 1.8364 22.7441C2.04136 23.1617 2.33056 23.5323 2.68579 23.8326C3.33798 24.4169 3.33798 24.7652 2.68579 25.3378C1.55749 26.3279 1.15965 27.9466 1.71662 29.2915C2.2736 30.6363 3.72539 31.5807 5.10022 31.5089C5.84636 31.4833 6.5654 31.2229 7.1549 30.7648C7.74441 30.3067 8.17431 29.6742 8.38338 28.9575C8.49034 28.6066 8.43555 28.4045 8.09641 28.214C7.33084 27.7699 6.71089 27.1128 6.312 26.3227C6.05112 25.8322 6.15025 25.4096 6.56114 25.1891C6.95246 24.9843 7.32551 25.1317 7.60465 25.6026C8.64034 27.3349 10.293 27.8984 12.2052 27.1679C12.6853 26.9853 13.1183 27.1262 13.2762 27.5188C13.434 27.9114 13.2592 28.3079 12.7805 28.5349C11.9548 28.9262 11.0378 29.0567 9.93691 28.9262L9.78299 29.4141C9.44013 30.5795 8.68121 31.5785 7.65034 32.2212C6.61947 32.864 5.38846 33.1058 4.19106 32.9007C3.79974 32.8355 3.61582 32.9333 3.45016 33.2842C2.90884 34.4262 2.78583 35.722 3.1026 36.9455C3.41937 38.169 4.1558 39.2423 5.18331 39.9781C6.21083 40.7139 7.46414 41.0654 8.72442 40.9713C9.98471 40.8772 11.1719 40.3434 12.0787 39.4631C12.1948 39.3483 12.3018 39.2257 12.4166 39.1109C12.7583 38.7757 13.1992 38.7418 13.5031 39.0248C13.807 39.3079 13.8253 39.7331 13.5031 40.1127C12.6708 41.0803 11.5812 41.7921 10.3608 42.1658C10.16 42.2297 9.95387 42.278 9.74777 42.3249C9.07731 42.4802 9.07731 42.4789 9.08253 43.2015C9.1034 46.0007 11.3378 48.3382 14.1697 48.5195C16.8919 48.6943 19.3872 46.6568 19.7694 43.928C19.8294 43.4963 19.8451 43.0593 19.8816 42.6315C19.4081 42.7189 18.9868 42.8284 18.5589 42.865C18.4619 42.8794 18.3629 42.8737 18.2681 42.8482C18.1734 42.8227 18.0849 42.778 18.0081 42.7168C17.9314 42.6556 17.8681 42.5793 17.8222 42.4926C17.7762 42.4059 17.7486 42.3106 17.7411 42.2128C17.7033 41.8215 18.002 41.4784 18.4337 41.4106C19.459 41.2501 19.8529 40.8066 19.8529 39.7931C19.8529 34.4886 19.8529 29.1841 19.8529 23.8795C19.8529 21.8042 18.482 20.3498 16.4093 20.2037C15.9019 20.1685 15.5601 19.8516 15.5758 19.4302C15.5915 19.0089 15.9436 18.7207 16.4563 18.7272C17.7346 18.7454 18.8198 19.2411 19.819 20.1255C19.8333 19.9403 19.8529 19.8059 19.8529 19.6729C19.8529 16.1249 19.8529 12.5774 19.8529 9.03031C19.8529 7.06068 18.5081 5.58672 16.5619 5.39497C14.8662 5.2267 13.2214 6.52066 12.8601 8.32985C12.8275 8.57551 12.8101 8.82295 12.8079 9.07075C13.9818 9.40467 15.0253 9.92904 15.8549 10.786C16.0363 10.9726 16.1967 11.2987 16.1719 11.5413C16.1119 12.1543 15.3814 12.3487 14.9053 11.8908C13.9984 11.0097 12.8081 10.479 11.5465 10.3934C9.34993 10.203 7.09855 11.5087 6.21287 13.5239C6.18026 13.5983 6.15547 13.6753 6.12025 13.7483C5.91025 14.1944 5.52936 14.3731 5.13283 14.214C4.73629 14.0548 4.57716 13.6387 4.75716 13.1874C5.16013 12.1689 5.81171 11.2676 6.65245 10.5656C7.93504 9.44859 9.58643 8.84715 11.287 8.8777C11.5322 6.31587 12.8066 4.56538 15.3736 4.02405C17.5611 3.5623 19.2751 4.45189 20.5912 6.25717C21.4886 4.9293 22.7147 4.10623 24.3061 3.93666C25.8975 3.76709 27.2501 4.28232 28.4215 5.4041C28.4882 5.33717 28.5497 5.26522 28.6054 5.18888C30.3572 2.27747 32.9021 0.55828 36.2752 0.0808724C36.3356 0.0628066 36.3928 0.0355275 36.4448 0L38.6936 0ZM37.5666 19.1654C39.3188 19.167 41.0321 18.6484 42.4894 17.6755C43.9466 16.7025 45.0824 15.3189 45.7527 13.7C46.423 12.081 46.5977 10.2995 46.2547 8.58119C45.9117 6.86285 45.0665 5.28497 43.826 4.04742C42.5855 2.80986 41.0056 1.96832 39.2865 1.62939C37.5673 1.29046 35.7863 1.4694 34.1689 2.14353C32.5515 2.81766 31.1706 3.95665 30.2011 5.41623C29.2316 6.87581 28.7171 8.59031 28.7228 10.3425C28.7238 11.5026 28.9534 12.6512 29.3985 13.7225C29.8435 14.7939 30.4953 15.767 31.3166 16.5864C32.1379 17.4057 33.1126 18.0552 34.185 18.4977C35.2574 18.9403 36.4065 19.1672 37.5666 19.1654Z" fill="#212124"/>
<path d="M34.5664 13.3517C33.8281 13.3517 33.1498 13.3517 32.4702 13.3517C31.1567 13.3517 30.5684 12.7569 30.5658 11.4421C30.5658 10.6282 30.5567 9.81553 30.5658 9.00159C30.5841 7.92547 31.2024 7.32806 32.285 7.32545C33.0155 7.32545 33.7472 7.32545 34.5625 7.32545V5.71713C34.5625 5.47191 34.5625 5.22798 34.5625 4.98406C34.5925 3.94055 35.2147 3.32618 36.2504 3.32227C37.1295 3.32227 38.0083 3.32227 38.8865 3.32227C39.9301 3.32227 40.547 3.94185 40.5653 4.99058C40.5783 5.72235 40.5744 6.45411 40.581 7.18588C40.581 7.21457 40.6057 7.24327 40.6449 7.32414C41.3792 7.32414 42.1397 7.32414 42.8989 7.32414C43.915 7.32414 44.5489 7.94112 44.5646 8.95333C44.5776 9.84814 44.575 10.743 44.5646 11.6378C44.5541 12.6904 43.9215 13.3244 42.8571 13.3478C42.1423 13.3648 41.4223 13.3596 40.7114 13.3661C40.6827 13.3661 40.654 13.3922 40.5666 13.4339C40.5666 14.1161 40.5666 14.827 40.5666 15.5392C40.5601 16.7236 39.9444 17.3393 38.7613 17.3458C37.9474 17.3458 37.1348 17.3458 36.3208 17.3458C35.1938 17.3354 34.5755 16.7184 34.5625 15.5901C34.5534 14.8622 34.5664 14.1344 34.5664 13.3517ZM43.045 11.8465V8.78506C42.0745 8.78506 41.1484 8.78506 40.2222 8.78506C39.2687 8.78506 39.0874 8.60506 39.0874 7.65155V4.8171H36.0456V5.32842C36.0456 6.17367 36.0456 7.02413 36.0456 7.86547C36.0456 8.51766 35.7847 8.77854 35.1325 8.77854C34.5951 8.77854 34.059 8.77854 33.5229 8.77854H32.0437V11.8465C32.795 11.8465 33.4785 11.8556 34.1555 11.8465C36.0208 11.8152 36.0873 11.8334 36.0482 13.7144C36.0338 14.407 36.0482 15.1009 36.0482 15.8431H39.0939C39.0939 14.8361 39.0939 13.897 39.0939 12.9578C39.0939 12.0604 39.3092 11.8491 40.2236 11.8478L43.045 11.8465Z" fill="#212124"/>
</svg>
