<svg width="50" height="42" viewBox="0 0 50 42" fill="none" xmlns="http://www.w3.org/2000/svg">
<g clip-path="url(#clip0_257_1075)">
<path d="M50 34.4682C49.7392 34.9975 49.3116 35.171 48.7248 35.1592C47.2162 35.1292 45.7075 35.1488 44.1415 35.1488V35.8555C44.1415 37.2051 44.1415 38.5546 44.1415 39.9055C44.1415 40.6448 43.7764 41.0034 43.028 41.0047C41.1564 41.0047 39.2875 41.0047 37.4211 41.0047C36.7131 41.0047 36.3467 40.6331 36.3454 39.9185C36.3454 38.5038 36.3454 37.0877 36.3454 35.673V35.1514H32.937C32.4819 35.1514 32.0242 35.1514 31.5705 35.1514C30.8546 35.1449 30.4869 34.7837 30.483 34.0757C30.483 33.2646 30.483 32.4536 30.483 31.6256C29.5703 31.7677 28.711 31.9099 27.8465 32.0363C24.2672 32.5579 20.8236 32.0142 17.4803 30.7103C12.7289 28.8561 8.62675 25.9914 4.99273 22.4656C3.34067 20.8631 1.87115 19.0754 0.340353 17.3438C-0.104282 16.8431 -0.0990668 16.4206 0.285589 15.9343C4.5507 10.5374 9.64902 6.13795 15.887 3.17675C17.3213 2.4935 18.8977 2.08146 20.4129 1.55729C20.5896 1.48389 20.7872 1.47786 20.9682 1.54034C21.1491 1.60282 21.3009 1.72946 21.3947 1.89631C21.5481 2.18889 21.6013 2.52376 21.546 2.84947C21.4638 3.26933 21.0492 3.39059 20.6671 3.52359C19.2602 4.01256 17.8207 4.43634 16.4698 5.05439C12.7041 6.77426 9.45473 9.26474 6.49093 12.1216C5.13486 13.4255 3.8831 14.8481 2.59091 16.2185C2.48139 16.3346 2.39011 16.4676 2.22712 16.6723C3.50366 18.0245 4.73064 19.4105 6.05151 20.7053C9.20829 23.7943 12.7015 26.4321 16.7345 28.285C19.4806 29.5446 22.3413 30.3217 25.3938 30.2591C27.1121 30.2291 28.8202 29.9869 30.4791 29.538C30.4791 29.3372 30.4895 29.1469 30.4791 28.9526C30.3943 27.6356 30.7464 27.2888 32.1129 27.3344C33.4794 27.3801 34.8759 27.3449 36.3376 27.3449V26.8233C36.3376 25.4242 36.3376 24.0251 36.3376 22.626C36.3376 21.8436 36.6896 21.4955 37.4681 21.4942C39.3053 21.4942 41.1438 21.4942 42.981 21.4877C43.1623 21.4877 43.4035 21.4577 43.5117 21.3429C44.9617 19.8121 46.3934 18.2631 47.8942 16.6488C46.5903 15.2588 45.4037 13.9106 44.1298 12.6667C40.8817 9.4851 37.3155 6.72601 33.1339 4.86533C31.9095 4.32029 30.6069 3.95258 29.333 3.52099C28.93 3.38408 28.5676 3.23021 28.4398 2.78558C28.2233 2.02931 28.8479 1.38517 29.6394 1.56642C31.71 2.03974 33.6593 2.84295 35.5239 3.84436C41.1217 6.84337 45.8092 10.9325 49.7288 15.9147C49.8292 16.0451 49.9101 16.1833 50 16.3176V16.9005C49.8909 17.0816 49.7707 17.2557 49.6402 17.422C47.9985 19.2632 46.3699 21.1147 44.6944 22.9246C44.3163 23.3327 44.1024 23.6978 44.1285 24.2663C44.1754 25.2821 44.1415 26.3004 44.1415 27.3501C45.7062 27.3501 47.2201 27.3696 48.7274 27.3396C49.3142 27.3279 49.7379 27.5013 50 28.0307V34.4682ZM48.0155 33.1994V29.2877C46.4051 29.2877 44.83 29.2877 43.2536 29.2877C42.5742 29.2877 42.1987 28.9096 42.1948 28.2328C42.1948 26.9798 42.1948 25.728 42.1948 24.4762V23.467H38.283C38.283 25.0773 38.283 26.6538 38.283 28.2289C38.283 28.9069 37.9049 29.2838 37.2269 29.2877C35.9425 29.2877 34.6581 29.2877 33.3725 29.2877H32.4597V33.1994C34.0701 33.1994 35.6452 33.1994 37.2216 33.1994C37.901 33.1994 38.2752 33.5763 38.2791 34.2556C38.2791 35.54 38.2791 36.8256 38.2791 38.11V39.0227H42.1909C42.1909 37.458 42.1909 35.9338 42.1909 34.4069C42.1909 33.5267 42.5155 33.202 43.3944 33.2007L48.0155 33.1994Z" fill="#212124"/>
<path d="M15.2559 16.6292C15.2512 14.6971 15.8203 12.807 16.8909 11.1986C17.9615 9.59019 19.4855 8.33579 21.2697 7.59436C23.054 6.85293 25.0182 6.65785 26.9134 7.03385C28.8086 7.40985 30.5496 8.34 31.9156 9.70642C33.2817 11.0728 34.2113 12.814 34.5868 14.7094C34.9623 16.6047 34.7667 18.5688 34.0248 20.3529C33.2829 22.1369 32.0281 23.6606 30.4194 24.7307C28.8107 25.8009 26.9205 26.3694 24.9883 26.3643C22.4074 26.3619 19.9329 25.3354 18.1082 23.5101C16.2835 21.6849 15.2576 19.2102 15.2559 16.6292ZM17.2052 16.568C17.2064 18.6314 18.0198 20.6115 19.4695 22.0799C20.9191 23.5484 22.8885 24.3872 24.9518 24.4149C29.2365 24.4527 32.8014 20.9322 32.8223 16.6423C32.8444 12.3746 29.3447 8.83052 25.0744 8.79792C23.0038 8.79369 21.0154 9.60803 19.5427 11.0635C18.0699 12.5189 17.2321 14.4975 17.2118 16.568H17.2052Z" fill="#212124"/>
<path d="M25.9871 1.96802C25.9895 2.09866 25.9657 2.22845 25.9169 2.34967C25.8682 2.4709 25.7955 2.58107 25.7033 2.67365C25.6111 2.76622 25.5012 2.8393 25.3802 2.88853C25.2592 2.93776 25.1295 2.96214 24.9989 2.96021C24.8682 2.95829 24.7393 2.9301 24.6198 2.87732C24.5003 2.82455 24.3926 2.74826 24.3031 2.65301C24.2137 2.55776 24.1443 2.44549 24.0992 2.32289C24.054 2.20028 24.034 2.06984 24.0403 1.93934C24.0525 1.68695 24.1623 1.44918 24.3465 1.27622C24.5307 1.10326 24.7749 1.00865 25.0276 1.01237C25.2802 1.0161 25.5215 1.11786 25.7006 1.29617C25.8796 1.47448 25.9823 1.71539 25.9871 1.96802Z" fill="#212124"/>
<path d="M28.9157 16.5863C28.9198 17.3582 28.6949 18.114 28.2694 18.758C27.844 19.4021 27.2371 19.9056 26.5255 20.2047C25.8139 20.5039 25.0296 20.5853 24.2717 20.4386C23.5139 20.292 22.8165 19.9239 22.2679 19.3809C21.7192 18.8379 21.3439 18.1444 21.1894 17.3881C21.0349 16.6318 21.1082 15.8467 21.4 15.132C21.6917 14.4174 22.1889 13.8053 22.8285 13.3732C23.4682 12.9411 24.2216 12.7084 24.9935 12.7045C25.5064 12.6999 26.0153 12.7968 26.4906 12.9897C26.9659 13.1827 27.3983 13.4678 27.7629 13.8286C28.1275 14.1895 28.4171 14.6189 28.615 15.0922C28.8128 15.5655 28.915 16.0733 28.9157 16.5863ZM26.9598 16.6215C26.9636 16.2348 26.8528 15.8556 26.6412 15.5319C26.4296 15.2082 26.1268 14.9545 25.7711 14.8028C25.4153 14.6512 25.0226 14.6084 24.6426 14.6799C24.2625 14.7513 23.9122 14.9338 23.6358 15.2044C23.3595 15.4749 23.1695 15.8213 23.09 16.1997C23.0104 16.5781 23.0448 16.9717 23.1889 17.3306C23.3329 17.6894 23.5801 17.9976 23.8992 18.216C24.2184 18.4345 24.5951 18.5534 24.9817 18.5578C25.4993 18.5569 25.996 18.3541 26.3662 17.9924C26.7364 17.6307 26.9508 17.1388 26.9637 16.6215H26.9598Z" fill="#212124"/>
</g>
<defs>
<clipPath id="clip0_257_1075">
<rect width="50" height="40.0146" fill="white" transform="translate(0 0.992676)"/>
</clipPath>
</defs>
</svg>
