<svg width="34" height="50" viewBox="0 0 34 50" fill="none" xmlns="http://www.w3.org/2000/svg">
<g clip-path="url(#clip0_257_923)">
<path d="M33.3129 16.7844C33.3922 21.5424 31.4673 25.4479 28.2281 28.8025C26.783 30.299 25.3074 31.7747 23.9305 33.3324C22.4006 35.0682 21.6537 37.1266 21.6453 39.4729C21.6287 44.3922 17.8317 48.8888 12.9903 49.797C6.88456 50.943 1.27956 47.1155 0.139083 41.0112C0.0494994 40.4467 0.00300443 39.8762 1.09791e-06 39.3046C-0.0194704 38.7163 0.292073 38.3686 0.789987 38.3505C1.31433 38.331 1.63143 38.6774 1.65786 39.2893C1.8039 42.6273 3.25035 45.2476 6.10848 47.0098C11.7399 50.4868 19.217 46.7942 19.9096 40.2239C20.0487 38.9722 20.0821 37.6913 20.3588 36.4687C20.7942 34.548 21.9096 32.9611 23.2323 31.5355C24.7789 29.8665 26.4075 28.2824 27.9263 26.5925C30.5688 23.644 31.7789 20.1474 31.6439 16.192C31.514 12.4565 29.9926 8.90455 27.3786 6.23306C24.7645 3.56157 21.2464 1.96346 17.5147 1.75235C13.783 1.54124 10.1071 2.73237 7.20838 5.09199C4.30968 7.45161 2.39747 10.8094 1.84701 14.5063C1.74826 15.1739 1.70793 15.8512 1.66759 16.5244C1.62726 17.1975 1.3338 17.5369 0.796941 17.5174C0.260085 17.4979 -0.022252 17.1474 1.09791e-06 16.5132C0.262866 9.6996 3.4089 4.62033 9.52017 1.66901C19.0626 -2.94156 30.2434 2.4117 32.8178 12.6746C33.153 14.0084 33.249 15.402 33.4548 16.7678L33.3129 16.7844Z" fill="#212124"/>
<path d="M22.4924 23.0167C22.5146 25.6968 21.2573 28.0432 18.7983 29.6927C17.3936 30.6398 15.8776 31.4284 14.4284 32.3032C13.9087 32.6154 13.4059 32.9547 12.9221 33.3199C11.5174 34.3895 10.8359 35.8165 10.822 37.5842C10.8109 39.4089 9.58693 40.7386 7.78026 40.9222C6.07789 41.096 4.46871 39.9486 4.21141 38.2101C4.00418 36.8192 4.2281 35.4089 4.54243 34.0376C4.85687 32.6689 5.3864 31.3587 6.11127 30.1558C7.45759 27.9041 6.04173 25.2142 3.4256 25.0195C2.79973 24.9722 2.47289 24.6621 2.49792 24.1391C2.52296 23.6162 2.88596 23.3491 3.516 23.3547C7.19611 23.3867 9.5466 27.5272 7.68846 30.7803C6.83172 32.2754 6.2128 33.8304 5.98888 35.5369C5.91934 36.0682 5.86927 36.6051 5.8498 37.1405C5.79834 38.3547 6.42282 39.1489 7.4256 39.1781C8.47428 39.2087 9.15021 38.4521 9.17247 37.2309C9.20167 35.5689 9.71211 34.0612 10.9235 32.9194C11.8054 32.1164 12.7578 31.3944 13.7691 30.7622C14.8818 30.0362 16.0988 29.459 17.2309 28.7553C18.8025 27.7817 20.0668 26.5299 20.5689 24.6676C20.8795 23.5434 20.927 22.3626 20.7079 21.217C20.3338 19.3074 19.0779 18.185 17.331 17.523C15.6857 16.8999 13.9597 16.7664 12.2239 16.6968C12.0153 16.6885 11.8067 16.7052 11.5995 16.6843C11.3906 16.6697 11.1957 16.5744 11.0558 16.4187C10.9159 16.263 10.8421 16.059 10.8498 15.8498C10.8466 15.7451 10.8645 15.6409 10.9022 15.5431C10.9399 15.4454 10.9968 15.3562 11.0695 15.2808C11.1422 15.2054 11.2292 15.1453 11.3255 15.104C11.4218 15.0627 11.5253 15.0411 11.63 15.0404C13.9166 15.0098 16.1725 15.217 18.306 16.1197C21.185 17.3394 22.523 19.5898 22.4924 23.0167Z" fill="#212124"/>
<path d="M16.0542 3.81085C22.5313 3.93603 27.6105 8.08763 28.897 14.1029C29.4617 16.7455 29.1432 19.3435 28.2976 21.8915C28.1168 22.4353 27.6968 22.6606 27.2114 22.516C26.726 22.3714 26.5688 21.9166 26.6995 21.3255C26.9638 20.1294 27.2809 18.936 27.4186 17.7232C28.0486 12.185 24.0292 6.79277 18.5507 5.7427C15.1557 5.0918 12.1335 5.7886 9.78855 8.42142C7.61887 10.8581 6.86783 13.6982 8.01108 16.8637C8.54238 18.3352 9.57298 19.4242 10.9109 20.2239C11.0306 20.2949 11.1571 20.3533 11.2726 20.4298C11.6898 20.7079 11.8289 21.1516 11.6133 21.5522C11.3894 21.9694 10.9179 22.1224 10.4492 21.8818C8.97771 21.1252 7.78716 20.0487 6.98605 18.6008C5.20024 15.3741 5.45615 12.1363 7.25448 9.04729C9.26421 5.5911 12.4033 3.93046 16.0542 3.81085Z" fill="#212124"/>
</g>
<defs>
<clipPath id="clip0_257_923">
<rect width="33.4548" height="50" fill="white"/>
</clipPath>
</defs>
</svg>
