<svg width="50" height="50" viewBox="0 0 50 50" fill="none" xmlns="http://www.w3.org/2000/svg">
<g clip-path="url(#clip0_257_1445)">
<path d="M28.3337 17.0082C28.1218 16.9587 27.9065 16.9252 27.6896 16.9081C26.3375 16.9081 25.475 16.2515 24.9993 14.8729C24.4707 16.5714 23.2256 17.0166 21.6607 16.9359V17.6314C21.6607 22.9941 21.5911 28.3581 21.6787 33.7208C21.7886 40.3591 17.5055 46.0097 11.3429 47.7583C9.41209 48.3064 7.50629 48.9393 5.58798 49.5278C2.62356 50.4431 -3.46068e-05 48.5025 -3.46068e-05 45.3948C-3.46068e-05 41.056 0.00692085 36.7172 -3.46068e-05 32.377C-0.020901 22.823 3.69192 15.0329 11.048 8.95796C11.8242 8.31806 12.5935 7.66842 13.3697 7.02852C14.8666 5.79462 16.5484 5.41902 18.3777 6.09927C20.207 6.77951 21.3365 8.14556 21.6106 10.0903C21.7386 10.9931 21.6704 11.9266 21.6481 12.8461C21.637 13.287 21.2308 13.5847 20.7801 13.5611C20.5696 13.5535 20.3705 13.4637 20.2254 13.3111C20.0804 13.1585 20.0008 12.9551 20.0039 12.7445C19.9691 11.8793 20.04 10.9973 19.8995 10.1515C19.5198 7.859 16.7793 6.63901 14.9055 7.9995C8.98781 12.2994 4.38886 17.5897 2.55957 24.8957C1.97852 27.1826 1.67954 29.532 1.66928 31.8915C1.65815 36.369 1.65815 40.8473 1.66928 45.3267C1.66928 47.3799 3.19948 48.5123 5.16787 47.9085C7.23503 47.2728 9.30776 46.6565 11.3638 45.9791C16.4246 44.3292 19.8801 39.8346 19.976 34.5276C20.0748 29.0272 20.0011 23.5227 20.0025 18.0209C19.9938 17.9454 19.9799 17.8705 19.9607 17.797C19.173 18.3866 18.6322 19.2476 18.4431 20.2133C18.3704 20.5877 18.3359 20.9685 18.3401 21.3498C18.3308 23.5014 18.3308 25.6534 18.3401 27.8059C18.3471 29.3569 17.7934 30.6757 16.7654 31.8206C16.5714 32.037 16.4165 32.2855 16.3077 32.555C15.8904 33.6011 15.512 34.6598 15.1114 35.7114C14.8721 36.3416 14.4659 36.5795 13.9749 36.3903C13.4838 36.2011 13.3099 35.7699 13.5353 35.1383C13.7384 34.5721 13.9526 34.0087 14.1168 33.5566C13.0776 33.5566 12.0301 33.5566 10.9785 33.5566C10.3622 33.5566 10.0047 33.2436 10.0047 32.722C10.0047 32.2003 10.3594 31.9082 10.9785 31.8873C11.7241 31.872 12.4794 31.9235 13.2042 31.8122C15.1392 31.5201 16.4274 30.1345 16.6291 28.1815C16.6861 27.6375 16.6388 27.0839 16.6388 26.4551C15.7763 26.9768 14.8666 26.885 13.9693 26.885C12.1122 26.885 10.2537 26.9044 8.39798 26.8655C8.24305 26.8497 8.09316 26.8015 7.95801 26.7241C7.82286 26.6467 7.70546 26.5418 7.61341 26.4162C7.48821 26.2284 7.51881 25.8138 7.65236 25.6121C7.7859 25.4104 8.12394 25.2588 8.38268 25.2407C9.09075 25.192 9.80438 25.224 10.6529 25.224C10.2134 24.7274 9.83637 24.3156 9.47608 23.8899C9.11579 23.4643 9.11996 23.0122 9.458 22.6755C9.83081 22.3041 10.3191 22.3319 10.7308 22.7812C11.3777 23.4851 11.9912 24.2168 12.6492 24.9082C12.8262 25.079 13.0555 25.1854 13.3002 25.2101C13.856 25.2436 14.4133 25.2464 14.9695 25.2184C15.9739 25.185 16.668 24.445 16.6166 23.5491C16.1005 23.513 15.5732 23.5491 15.0864 23.4253C14.5812 23.2832 14.1363 22.9801 13.8192 22.5621C13.5021 22.144 13.3301 21.6339 13.3294 21.1091C13.3224 20.5527 13.3211 19.9963 13.3294 19.4398C13.3378 18.8834 13.6563 18.5621 14.139 18.5509C14.6468 18.5398 14.9737 18.8848 14.989 19.4524C14.9973 19.9378 14.989 20.4261 14.989 20.9102C15.0001 21.4806 15.3298 21.8617 15.8014 21.8756C16.273 21.8895 16.6485 21.5098 16.6513 20.9506C16.6752 19.5593 17.1949 18.2223 18.1168 17.18C19.0386 16.1378 20.3022 15.4588 21.6801 15.2652C21.9194 15.2318 22.1642 15.2332 22.4063 15.2165C22.9836 15.1775 23.3007 14.8687 23.3188 14.2942C23.3355 13.7739 23.3188 13.2537 23.3188 12.732C23.3188 8.92968 23.3188 5.12736 23.3188 1.32504C23.3188 0.856245 23.3786 0.436135 23.8753 0.26364C24.0562 0.186198 24.2593 0.178297 24.4457 0.241454C24.6321 0.304611 24.7886 0.434377 24.8852 0.605848C25.2942 0.466739 25.6392 0.259467 25.9911 0.248338C26.4182 0.235818 26.6547 0.643408 26.6561 1.19984C26.6561 3.40519 26.6561 5.6096 26.6561 7.81309C26.6561 9.89602 26.6561 11.9789 26.6561 14.0619C26.6561 14.9146 26.9259 15.1928 27.7592 15.2165C30.7083 15.2999 33.222 17.8234 33.3361 20.7697C33.35 21.0952 33.5002 21.5098 33.7339 21.7101C34.225 22.1274 34.9386 21.7254 34.9859 21.0299C35.0193 20.511 34.9859 19.9879 34.997 19.4677C35.0054 18.8945 35.324 18.5468 35.8317 18.5468C36.3394 18.5468 36.6538 18.8945 36.6664 19.4677C36.6733 19.9712 36.6664 20.4748 36.6664 20.9784C36.6566 22.695 35.2377 23.8259 33.5461 23.4684C33.5001 23.4611 33.4536 23.457 33.407 23.4559C33.2234 24.2725 34.0205 25.1753 34.9623 25.2045C35.5869 25.2226 36.2143 25.2268 36.8375 25.2045C37.0181 25.1808 37.1847 25.0941 37.3077 24.9597C37.9545 24.2641 38.5777 23.5338 39.219 22.8271C39.6628 22.3361 40.1357 22.2832 40.528 22.6546C40.9203 23.0261 40.8855 23.4684 40.471 23.9484C40.1316 24.3406 39.7838 24.726 39.3484 25.217C40.183 25.217 40.9245 25.1725 41.6506 25.2393C41.8041 25.262 41.9508 25.3175 42.0809 25.402C42.211 25.4865 42.3214 25.598 42.4046 25.729C42.5145 25.9446 42.4283 26.3438 42.2864 26.5747C42.1806 26.7472 41.8496 26.8641 41.6173 26.8655C39.3428 26.8863 37.0684 26.8947 34.8009 26.8655C34.3321 26.8585 33.8647 26.6693 33.3987 26.5636C32.9814 28.9173 34.0845 31.0666 36.1336 31.6522C36.8834 31.8651 37.7083 31.8192 38.4984 31.8818C38.7224 31.8998 38.9491 31.8818 39.1745 31.8818C39.6711 31.9054 40.0008 32.2295 40.0091 32.6928C40.016 32.8061 39.9985 32.9196 39.958 33.0256C39.9174 33.1316 39.8546 33.2278 39.7739 33.3076C39.6931 33.3874 39.5963 33.449 39.4898 33.4884C39.3833 33.5277 39.2696 33.5439 39.1564 33.5358C38.0714 33.5358 36.9849 33.4982 35.8776 33.4759C36.0668 33.9879 36.2768 34.5485 36.4799 35.1133C36.7067 35.7434 36.5592 36.1705 36.0529 36.3652C35.5465 36.56 35.1515 36.3235 34.9094 35.6989C34.6674 35.0743 34.4295 34.4748 34.2139 33.8529C33.8828 32.9042 33.5002 32.0125 32.8228 31.2252C32.0201 30.3001 31.6862 29.1385 31.6862 27.8991C31.6862 25.6594 31.6932 23.4211 31.6862 21.1815C31.694 20.5268 31.55 19.8791 31.2657 19.2893C30.9814 18.6995 30.5645 18.1835 30.0475 17.7817C30.0267 17.9708 30.0002 18.0947 30.0002 18.2198C30.0002 23.531 29.9794 28.8422 30.0002 34.1534C30.0267 39.6872 33.5239 44.3835 38.8198 46.0528C40.8341 46.6871 42.8512 47.3099 44.871 47.921C46.7991 48.5081 48.3279 47.3646 48.3307 45.335C48.3307 40.8571 48.3793 36.3778 48.3209 31.9012C48.2068 23.2505 44.8353 16.1281 38.2063 10.5341C37.316 9.78566 36.4225 9.04375 35.5257 8.30832C34.4337 7.4055 33.2234 7.20519 31.9353 7.79779C30.6179 8.40152 30.0142 9.48936 29.9961 10.918C29.9877 11.5078 29.9961 12.099 29.9961 12.6889C29.9863 13.223 29.6594 13.5625 29.1753 13.5666C28.6912 13.5708 28.3407 13.2342 28.3407 12.7056C28.3532 11.7318 28.2822 10.7469 28.452 9.80235C29.0738 6.34549 33.1733 4.56072 36.0167 6.61119C40.8855 10.1209 45.0449 14.2998 47.4863 19.9351C49.0985 23.6562 49.9902 27.5262 49.9902 31.5868C49.9986 36.2238 49.9986 40.858 49.9902 45.4894C49.9902 48.4344 47.3736 50.4278 44.565 49.5778C41.965 48.7919 39.3025 48.1255 36.8222 47.0516C31.92 44.9316 29.1475 41.0699 28.4311 35.7615C28.3603 35.1763 28.3278 34.5871 28.3337 33.9976C28.3263 28.5492 28.3263 23.0993 28.3337 17.6481V17.0082Z" fill="#212124"/>
<path d="M8.32978 21.0368C8.33495 21.1488 8.31706 21.2606 8.27722 21.3653C8.23738 21.4701 8.17644 21.5655 8.09817 21.6458C8.01991 21.726 7.92599 21.7893 7.82226 21.8317C7.71852 21.8741 7.60717 21.8947 7.49513 21.8923C7.00407 21.8923 6.57283 21.4917 6.57422 21.034C6.57561 20.5764 6.9053 20.2411 7.39218 20.2314C7.94723 20.2216 8.31587 20.5346 8.32978 21.0368Z" fill="#212124"/>
<path d="M42.5674 21.8937C42.0193 21.8937 41.6604 21.5571 41.666 21.0591C41.665 20.9514 41.6855 20.8446 41.7262 20.7449C41.7668 20.6452 41.8269 20.5545 41.9028 20.4782C41.9788 20.4018 42.0691 20.3413 42.1686 20.3001C42.2681 20.259 42.3748 20.238 42.4825 20.2383C42.9722 20.2286 43.4118 20.6237 43.4215 21.073C43.434 21.5613 43.0849 21.8951 42.5674 21.8937Z" fill="#212124"/>
<path d="M5.74095 26.8975C6.29738 26.8975 6.65768 27.2188 6.66185 27.7182C6.66462 27.8299 6.64441 27.9409 6.60248 28.0445C6.56055 28.148 6.49778 28.2418 6.41808 28.3201C6.33838 28.3983 6.24344 28.4594 6.13917 28.4994C6.03489 28.5395 5.92349 28.5577 5.81189 28.5529C5.32223 28.5445 4.89655 28.1355 4.90629 27.6779C4.91603 27.2202 5.2485 26.9016 5.74095 26.8975Z" fill="#212124"/>
<path d="M44.22 28.5584C43.6788 28.5515 43.3213 28.2051 43.3352 27.7015C43.3367 27.5937 43.3595 27.4873 43.4023 27.3884C43.4451 27.2895 43.5072 27.2001 43.5848 27.1253C43.6624 27.0505 43.7541 26.9919 43.8545 26.9528C43.9549 26.9137 44.0621 26.8949 44.1699 26.8975C44.6609 26.8975 45.0936 27.2995 45.0922 27.7558C45.0908 28.244 44.7402 28.5668 44.22 28.5584Z" fill="#212124"/>
<path d="M7.39921 31.8957C7.95565 31.8957 8.31873 32.2101 8.32985 32.7081C8.3341 32.8201 8.31528 32.9317 8.27458 33.0361C8.23388 33.1406 8.17216 33.2355 8.09324 33.3151C8.01433 33.3946 7.9199 33.4571 7.81583 33.4987C7.71176 33.5402 7.60026 33.56 7.48824 33.5567C6.99719 33.5567 6.56873 33.1491 6.57291 32.6914C6.57708 32.2337 6.90955 31.9026 7.39921 31.8957Z" fill="#212124"/>
<path d="M42.5994 33.558C42.0429 33.5664 41.6799 33.245 41.6687 32.747C41.6639 32.6354 41.6821 32.524 41.7222 32.4197C41.7622 32.3154 41.8233 32.2205 41.9015 32.1408C41.9798 32.0611 42.0736 31.9983 42.1771 31.9564C42.2807 31.9145 42.3917 31.8943 42.5034 31.897C42.9944 31.897 43.4243 32.3046 43.4201 32.7609C43.4159 33.2172 43.0876 33.551 42.5994 33.558Z" fill="#212124"/>
<path d="M10.7615 36.8953C11.3096 36.8953 11.6685 37.2333 11.6629 37.7369C11.6635 37.8441 11.6429 37.9503 11.6023 38.0495C11.5618 38.1487 11.5021 38.2389 11.4266 38.315C11.3512 38.3911 11.2614 38.4516 11.1626 38.493C11.0637 38.5344 10.9577 38.5559 10.8505 38.5562C10.3608 38.5646 9.92126 38.1695 9.91431 37.7132C9.89901 37.2278 10.244 36.8925 10.7615 36.8953Z" fill="#212124"/>
<path d="M39.2524 38.5576C38.6959 38.5576 38.3384 38.2321 38.3356 37.7313C38.3326 37.6192 38.3528 37.5077 38.3949 37.4038C38.437 37.2999 38.5002 37.2058 38.5804 37.1274C38.6606 37.049 38.7561 36.9881 38.861 36.9484C38.9658 36.9087 39.0778 36.891 39.1898 36.8966C39.6794 36.905 40.1037 37.314 40.0912 37.7744C40.0787 38.2349 39.7448 38.5548 39.2524 38.5576Z" fill="#212124"/>
<path d="M6.66189 39.3769C6.66597 39.489 6.64693 39.6007 6.60596 39.705C6.56498 39.8094 6.50296 39.9042 6.42374 39.9836C6.34452 40.0629 6.24981 40.1251 6.14551 40.1662C6.04121 40.2074 5.92955 40.2266 5.8175 40.2227C5.32644 40.2227 4.89938 39.8054 4.90633 39.3533C4.91329 38.9012 5.24437 38.5673 5.74099 38.5618C6.28769 38.5548 6.65494 38.8775 6.66189 39.3769Z" fill="#212124"/>
<path d="M44.2284 40.2241C43.6844 40.2241 43.3255 39.8791 43.3353 39.3742C43.3355 39.2665 43.357 39.1599 43.3987 39.0606C43.4403 38.9613 43.5013 38.8712 43.578 38.7957C43.6548 38.7201 43.7457 38.6605 43.8457 38.6204C43.9456 38.5802 44.0525 38.5603 44.1602 38.5618C44.6499 38.5618 45.0867 38.9555 45.0908 39.4117C45.095 39.9 44.7472 40.2283 44.2284 40.2241Z" fill="#212124"/>
</g>
<defs>
<clipPath id="clip0_257_1445">
<rect width="50" height="49.5507" fill="white" transform="translate(0 0.22467)"/>
</clipPath>
</defs>
</svg>
