<svg width="76" height="75" viewBox="0 0 76 75" fill="none" xmlns="http://www.w3.org/2000/svg">
<path d="M60.05 74.975C47.4937 65.7063 26.6281 49.9062 0.674988 46.4594L11.7687 35.6094C43.6125 47.9062 60.05 74.975 60.05 74.975ZM1.99999 57.6156L10.6562 50.6875C35.9187 56.9 57.3437 75 57.3437 75C48.3219 69.9062 22.7281 57.375 1.99999 57.6156ZM9.94686 32.4844L38.8531 6.76562L45.0781 10.3688L31.0625 26.2812C46.1562 38.7281 62.9062 51.9688 61.4062 73.5531C46.5437 52.4969 29.0187 37.4375 9.94686 32.4844ZM34.6562 25.825L56.8594 0C68.7062 9.6875 75.3281 24.7281 75.3281 32.8531C74.3625 43.2344 64.2094 68.3219 63.2719 71.0906C62.5687 64.8187 67.7531 53.7156 34.6562 25.825Z" fill="#1F2B6C"/>
</svg>
