<svg width="76" height="63" viewBox="0 0 76 63" fill="none" xmlns="http://www.w3.org/2000/svg">
<path d="M72.375 0.25H3.625C2.7962 0.25 2.00134 0.57924 1.41529 1.16529C0.82924 1.75134 0.5 2.5462 0.5 3.375L0.5 59.625C0.5 60.4538 0.82924 61.2487 1.41529 61.8347C2.00134 62.4208 2.7962 62.75 3.625 62.75H72.375C73.2038 62.75 73.9987 62.4208 74.5847 61.8347C75.1708 61.2487 75.5 60.4538 75.5 59.625V3.375C75.5 2.5462 75.1708 1.75134 74.5847 1.16529C73.9987 0.57924 73.2038 0.25 72.375 0.25ZM69.25 56.5H63V53.375H47.375V56.5H6.75V6.5H69.25V56.5ZM32.6562 24.3438C32.6562 22.9265 33.2193 21.5673 34.2214 20.5651C35.2235 19.563 36.5827 19 38 19C40.9688 19 43.3438 21.4062 43.3438 24.3438C43.3438 27.3125 40.9688 29.7188 38 29.7188C35.0312 29.7188 32.6562 27.3125 32.6562 24.3438ZM18.3438 29.2812C18.3438 27.0625 20.1562 25.25 22.375 25.25C23.4442 25.25 24.4695 25.6747 25.2255 26.4307C25.9815 27.1867 26.4062 28.2121 26.4062 29.2812C26.4062 31.5 24.5938 33.2812 22.375 33.2812C20.1562 33.2812 18.3438 31.5 18.3438 29.2812ZM49.5938 29.2812C49.5938 28.2121 50.0185 27.1867 50.7745 26.4307C51.5305 25.6747 52.5558 25.25 53.625 25.25C54.6942 25.25 55.7195 25.6747 56.4755 26.4307C57.2315 27.1867 57.6563 28.2121 57.6563 29.2812C57.6563 31.5 55.8438 33.2812 53.625 33.2812C51.4062 33.2812 49.5938 31.5 49.5938 29.2812ZM63 41.3125V44H13V41.3125C13 38.375 17.8438 35.9688 22.375 35.9688C24.0938 35.9688 25.8438 36.3125 27.375 36.9062C29.7188 34.75 33.9375 33.2812 38 33.2812C42.0625 33.2812 46.2812 34.75 48.625 36.9062C50.1562 36.3125 51.9062 35.9688 53.625 35.9688C58.1562 35.9688 63 38.375 63 41.3125Z" fill="#1F2B6C"/>
</svg>
