<svg width="65" height="63" viewBox="0 0 65 63" fill="none" xmlns="http://www.w3.org/2000/svg">
<path d="M58 47.125C59.6576 47.125 61.2473 46.4665 62.4194 45.2944C63.5915 44.1223 64.25 42.5326 64.25 40.875V6.5C64.25 4.8424 63.5915 3.25268 62.4194 2.08058C61.2473 0.90848 59.6576 0.25 58 0.25H25.0625C26.1562 2.15625 26.75 4.3125 26.75 6.5H58V40.875H29.875V47.125M42.375 15.875V22.125H23.625V62.75H17.375V44H11.125V62.75H4.875V37.75H0.1875V22.125C0.1875 20.4674 0.84598 18.8777 2.01808 17.7056C3.19018 16.5335 4.7799 15.875 6.4375 15.875H42.375ZM20.5 6.5C20.5 8.1576 19.8415 9.74732 18.6694 10.9194C17.4973 12.0915 15.9076 12.75 14.25 12.75C12.5924 12.75 11.0027 12.0915 9.83058 10.9194C8.65848 9.74732 8 8.1576 8 6.5C8 4.8424 8.65848 3.25268 9.83058 2.08058C11.0027 0.90848 12.5924 0.25 14.25 0.25C15.9076 0.25 17.4973 0.90848 18.6694 2.08058C19.8415 3.25268 20.5 4.8424 20.5 6.5Z" fill="#1F2B6C"/>
</svg>
