<svg width="76" height="75" viewBox="0 0 76 75" fill="none" xmlns="http://www.w3.org/2000/svg">
<path fill-rule="evenodd" clip-rule="evenodd" d="M0.5 26.25C0.5 24.2609 1.29018 22.3532 2.6967 20.9467C4.10322 19.5402 6.01088 18.75 8 18.75H68C69.9891 18.75 71.8968 19.5402 73.3033 20.9467C74.7098 22.3532 75.5 24.2609 75.5 26.25V67.5C75.5 69.4891 74.7098 71.3968 73.3033 72.8033C71.8968 74.2098 69.9891 75 68 75H8C6.01088 75 4.10322 74.2098 2.6967 72.8033C1.29018 71.3968 0.5 69.4891 0.5 67.5V26.25ZM68 26.25H8V67.5H68V26.25Z" fill="#1F2B6C"/>
<path fill-rule="evenodd" clip-rule="evenodd" d="M22.0625 35.6249C22.0625 34.879 22.3588 34.1637 22.8863 33.6362C23.4137 33.1088 24.1291 32.8124 24.875 32.8124H51.125C51.871 32.8124 52.5863 33.1088 53.1138 33.6362C53.6412 34.1637 53.9375 34.879 53.9375 35.6249C53.9375 36.3709 53.6412 37.0862 53.1138 37.6137C52.5863 38.1411 51.871 38.4374 51.125 38.4374H24.875C24.1291 38.4374 23.4137 38.1411 22.8863 37.6137C22.3588 37.0862 22.0625 36.3709 22.0625 35.6249ZM18.3125 46.8749C18.3125 46.129 18.6088 45.4137 19.1363 44.8862C19.6637 44.3588 20.3791 44.0624 21.125 44.0624H54.875C55.621 44.0624 56.3363 44.3588 56.8638 44.8862C57.3912 45.4137 57.6875 46.129 57.6875 46.8749C57.6875 47.6209 57.3912 48.3362 56.8638 48.8637C56.3363 49.3911 55.621 49.6874 54.875 49.6874H21.125C20.3791 49.6874 19.6637 49.3911 19.1363 48.8637C18.6088 48.3362 18.3125 47.6209 18.3125 46.8749ZM22.0625 58.1249C22.0625 57.379 22.3588 56.6637 22.8863 56.1362C23.4137 55.6088 24.1291 55.3124 24.875 55.3124H51.125C51.871 55.3124 52.5863 55.6088 53.1138 56.1362C53.6412 56.6637 53.9375 57.379 53.9375 58.1249C53.9375 58.8709 53.6412 59.5862 53.1138 60.1137C52.5863 60.6411 51.871 60.9374 51.125 60.9374H24.875C24.1291 60.9374 23.4137 60.6411 22.8863 60.1137C22.3588 59.5862 22.0625 58.8709 22.0625 58.1249ZM43.3025 10.6049C41.8961 9.19891 39.9888 8.40904 38 8.40904C36.0113 8.40904 34.104 9.19891 32.6975 10.6049L18.1513 25.1549C17.8029 25.5031 17.3893 25.7792 16.9342 25.9676C16.479 26.1559 15.9913 26.2528 15.4987 26.2526C15.0061 26.2524 14.5184 26.1552 14.0634 25.9666C13.6085 25.7779 13.1951 25.5015 12.8469 25.1531C12.4987 24.8047 12.2226 24.3911 12.0343 23.9359C11.8459 23.4808 11.7491 22.993 11.7493 22.5005C11.7494 22.0079 11.8466 21.5202 12.0353 21.0652C12.2239 20.6102 12.5004 20.1969 12.8488 19.8487L27.395 5.30244C30.2079 2.49038 34.0226 0.910645 38 0.910645C41.9775 0.910645 45.7921 2.49038 48.605 5.30244L63.155 19.8487C63.8582 20.5523 64.253 21.5065 64.2527 22.5013C64.2523 23.496 63.8568 24.4499 63.1532 25.1531C62.4495 25.8562 61.4953 26.2511 60.5006 26.2507C59.5058 26.2503 58.5519 25.8548 57.8488 25.1512L43.3025 10.6049Z" fill="#1F2B6C"/>
</svg>
