<svg width="76" height="75" viewBox="0 0 76 75" fill="none" xmlns="http://www.w3.org/2000/svg">
<path d="M66.8662 16.5263L38.7412 7.1513C38.2601 6.99091 37.7399 6.99091 37.2588 7.1513L9.13379 16.5263C8.6671 16.6819 8.2612 16.9803 7.97358 17.3794C7.68597 17.7785 7.53121 18.258 7.53125 18.7499V42.1874C7.53125 42.809 7.77818 43.4052 8.21772 43.8447C8.65726 44.2843 9.2534 44.5312 9.875 44.5312C10.4966 44.5312 11.0927 44.2843 11.5323 43.8447C11.9718 43.4052 12.2188 42.809 12.2188 42.1874V22.0019L22.0596 25.2802C19.445 29.5042 18.6136 34.5932 19.7479 39.4297C20.8821 44.2662 23.8894 48.4549 28.1094 51.0761C22.8359 53.1445 18.2773 56.8857 14.9434 62.0009C14.77 62.2586 14.6495 62.5482 14.589 62.8529C14.5286 63.1575 14.5292 63.4712 14.591 63.7756C14.6528 64.08 14.7745 64.3691 14.949 64.626C15.1235 64.883 15.3474 65.1027 15.6075 65.2724C15.8677 65.442 16.159 65.5583 16.4645 65.6144C16.77 65.6706 17.0836 65.6654 17.3871 65.5993C17.6905 65.5331 17.9778 65.4073 18.2323 65.2291C18.4867 65.051 18.7032 64.824 18.8691 64.5615C23.2842 57.788 30.2568 53.9062 38 53.9062C45.7432 53.9062 52.7158 57.788 57.1309 64.5615C57.4746 65.0724 58.0056 65.4275 58.6091 65.55C59.2126 65.6725 59.8401 65.5526 60.3558 65.2162C60.8716 64.8798 61.2343 64.3539 61.3654 63.7522C61.4966 63.1506 61.3856 62.5214 61.0566 62.0009C57.7227 56.8857 53.1465 53.1445 47.8906 51.0761C52.1065 48.455 55.111 44.2691 56.2451 39.4361C57.3792 34.6031 56.5504 29.5176 53.9404 25.2948L66.8662 20.9882C67.333 20.8327 67.739 20.5343 68.0267 20.1352C68.3144 19.7361 68.4693 19.2566 68.4693 18.7646C68.4693 18.2726 68.3144 17.7931 68.0267 17.394C67.739 16.9949 67.333 16.6964 66.8662 16.5409V16.5263ZM52.0625 35.1562C52.0631 37.3794 51.5366 39.5711 50.5262 41.5514C49.5158 43.5317 48.0502 45.2443 46.2498 46.5485C44.4494 47.8528 42.3653 48.7116 40.1687 49.0544C37.9721 49.3973 35.7255 49.2145 33.6132 48.5209C31.501 47.8274 29.5832 46.643 28.0174 45.0647C26.4515 43.4865 25.2821 41.5596 24.6052 39.4419C23.9283 37.3243 23.7631 35.0763 24.1232 32.8824C24.4833 30.6886 25.3584 28.6114 26.6768 26.8212L37.2588 30.3368C37.7399 30.4972 38.2601 30.4972 38.7412 30.3368L49.3232 26.8212C51.1039 29.2353 52.0639 32.1565 52.0625 35.1562Z" fill="#1F2B6C"/>
</svg>
