<svg width="51" height="51" viewBox="0 0 51 51" fill="none" xmlns="http://www.w3.org/2000/svg">
<g clip-path="url(#clip0_257_1461)">
<g clip-path="url(#clip1_257_1461)">
<path d="M1 47.7493V17.1063C1.03321 17.0715 1.06096 17.0318 1.08229 16.9887C1.26536 16.0711 1.77481 15.251 2.51626 14.6804C3.25771 14.1097 4.18089 13.8271 5.11474 13.885C9.58806 13.885 14.0614 13.885 18.5347 13.885C19.335 13.8423 20.1294 14.0445 20.812 14.4645C21.4945 14.8846 22.033 15.5026 22.3555 16.2363C23.0609 17.6588 23.8074 19.0637 24.4775 20.5039C24.6251 20.8807 24.8914 21.1993 25.236 21.4114C25.5807 21.6235 25.9851 21.7176 26.388 21.6795C33.2537 21.6795 40.1116 21.6795 46.9617 21.6795C47.4932 21.6597 48.0231 21.7499 48.5181 21.9444C49.0131 22.1389 49.4627 22.4336 49.8385 22.81C50.2143 23.1864 50.5083 23.6363 50.7021 24.1316C50.8959 24.6269 50.9853 25.157 50.9647 25.6884V46.9911C50.9699 47.2349 50.9542 47.4788 50.9177 47.72C50.7628 48.6502 50.2748 49.4924 49.5447 50.0894C48.8147 50.6864 47.8924 50.9975 46.9499 50.9647H5.51446C2.98095 50.9647 1.8641 50.177 1.03527 47.7846C1.02939 47.7729 1 47.7611 1 47.7493ZM30.391 40.6955C31.5255 40.6955 32.613 40.6955 33.6946 40.6955C33.8959 40.7059 34.0973 40.6751 34.2863 40.6049C34.4753 40.5348 34.6481 40.4268 34.7939 40.2876C34.9397 40.1484 35.0556 39.9808 35.1344 39.7952C35.2133 39.6097 35.2534 39.4099 35.2523 39.2083C35.2523 37.292 35.2523 35.3698 35.2523 33.4536C35.2592 33.249 35.2233 33.0453 35.147 32.8554C35.0706 32.6655 34.9554 32.4937 34.8087 32.3509C34.6621 32.2081 34.4872 32.0975 34.2954 32.0263C34.1035 31.955 33.8989 31.9246 33.6946 31.937C32.7364 31.937 31.7724 31.937 30.8142 31.937C30.6732 31.937 30.538 31.937 30.4087 31.9076C30.4062 31.8606 30.4062 31.8135 30.4087 31.7665C30.4087 30.7613 30.4087 29.7503 30.4087 28.7451C30.434 28.5169 30.4076 28.2859 30.3314 28.0693C30.2552 27.8526 30.1311 27.656 29.9685 27.4939C29.8058 27.3318 29.6087 27.2085 29.3918 27.133C29.175 27.0575 28.9439 27.0319 28.7157 27.0581C27.0875 27.0581 25.4592 27.111 23.8368 27.0581C22.2144 27.0052 21.4855 27.5812 21.6149 29.3094C21.6678 30.1735 21.6149 31.0729 21.6149 31.9487H18.4112C18.1832 31.9218 17.952 31.9466 17.7349 32.0213C17.5177 32.096 17.3202 32.2187 17.157 32.3802C16.9938 32.5417 16.869 32.738 16.7921 32.9543C16.7151 33.1707 16.6879 33.4016 16.7124 33.6299V38.9203C16.7124 40.2135 17.2532 40.7543 18.5464 40.7543H21.5737V43.9109C21.5451 44.1463 21.5716 44.3851 21.6512 44.6085C21.7308 44.8319 21.8614 45.0337 22.0324 45.198C22.2035 45.3622 22.4105 45.4844 22.6369 45.5548C22.8634 45.6252 23.1031 45.642 23.3372 45.6038C25.1006 45.6038 26.8641 45.6038 28.6276 45.6038C29.8032 45.6038 30.391 45.016 30.391 43.8403V40.6955Z" fill="#249CDE"/>
<path d="M31.355 1C31.355 4.02728 31.355 7.04867 31.355 10.0759C31.3314 10.5574 31.4089 11.0385 31.5826 11.4882C31.7563 11.9379 32.0223 12.3462 32.3635 12.6868C32.7046 13.0274 33.1133 13.2927 33.5633 13.4657C34.0133 13.6387 34.4945 13.7154 34.976 13.691C37.8093 13.691 40.6367 13.691 43.47 13.691H44.0166V18.7639H43.4994C38.1149 18.7639 32.7324 18.7639 27.3519 18.7639C27.2033 18.7811 27.0533 18.7467 26.927 18.6664C26.8007 18.5862 26.7058 18.4649 26.6583 18.3231C26.0999 17.1474 25.5121 15.9718 24.8948 14.8432C24.3402 13.6456 23.4451 12.6379 22.3213 11.9459C21.1975 11.2538 19.8948 10.9081 18.5758 10.9518C15.0488 10.9518 11.5219 10.9518 7.90683 10.9518V10.4051C7.90683 7.88338 7.93622 5.36163 7.90683 2.83988C7.86254 2.45504 7.94619 2.06633 8.14487 1.73379C8.34354 1.40124 8.64619 1.14337 9.00606 1L31.355 1Z" fill="#249CDE"/>
<path d="M34.2823 1.96991L43.0997 10.7872H35.0171C34.394 10.7872 34.2823 10.6755 34.2823 10.0466V1.96991Z" fill="#249CDE"/>
<path d="M47.0028 13.115C49.4011 13.7616 51.4408 15.9306 50.9177 19.9572C49.757 19.1847 48.397 18.7661 47.0028 18.7522V13.115Z" fill="#249CDE"/>
<path d="M24.5128 42.6412V39.4787C24.5383 39.2507 24.512 39.0199 24.4357 38.8035C24.3595 38.5871 24.2353 38.3907 24.0726 38.2291C23.9098 38.0674 23.7125 37.9446 23.4956 37.8699C23.2787 37.7952 23.0477 37.7705 22.8198 37.7976H19.8102C19.8102 37.7976 19.7514 37.7976 19.6868 37.7682V34.8702H22.7493C23.972 34.8702 24.5128 34.2824 24.5128 33.1068V30.0266H27.4519V33.0891C27.4519 34.3118 28.0397 34.8526 29.2153 34.8526H32.272V37.7917H29.2153C27.9927 37.7917 27.4519 38.3501 27.4519 39.5551V42.4942C27.4445 42.5379 27.4347 42.581 27.4225 42.6236L24.5128 42.6412Z" fill="#249CDE"/>
</g>
</g>
<defs>
<clipPath id="clip0_257_1461">
<rect width="50" height="50" fill="white" transform="translate(0.908081 0.5)"/>
</clipPath>
<clipPath id="clip1_257_1461">
<rect width="50" height="49.9706" fill="white" transform="translate(1 1)"/>
</clipPath>
</defs>
</svg>