<svg width="50" height="50" viewBox="0 0 50 50" fill="none" xmlns="http://www.w3.org/2000/svg">
<rect width="50" height="50" fill="none"/>
<g id="Home 2" clip-path="url(#clip0_0_1)">
<rect width="1440" height="6673" transform="translate(-164 -821)" fill="none"/>
<g id="Frame" clip-path="url(#clip1_0_1)">
<g id="Book appointment" filter="url(#filter0_d_0_1)">
<rect x="-42" y="-20" width="280.816" height="89" rx="10" fill="none" shape-rendering="crispEdges"/>
<g id="Frame 181">
<g id="maki:college" clip-path="url(#clip2_0_1)">
<g id="Asset 2" clip-path="url(#clip3_0_1)">
<g id="Layer 2">
<g id="Layer 1">
<path id="Vector" d="M50 16.4797V17.0724C50 26.7206 50 36.3667 50 46.0107C50 47.8333 49.1206 49.0887 47.5338 49.4902C47.172 49.5709 46.8018 49.6073 46.4313 49.5985H3.58143C1.76522 49.5985 0.503433 48.7 0.101954 47.1132C0.0264302 46.7874 -0.00782609 46.4534 -8.5918e-06 46.119C-8.5918e-06 36.4071 -8.5918e-06 26.693 -8.5918e-06 16.9768C-8.5918e-06 16.8175 -8.5918e-06 16.6645 -8.5918e-06 16.4797H50ZM45.3033 35.362V30.4359H39.2047V24.3755H34.2977V30.4678H28.2373V35.3683H34.3423V41.4224H39.2302V35.362H45.3033ZM24.1588 42.4229C24.1588 41.7856 24.1588 41.0846 24.1588 40.4155C24.1741 40.2655 24.1563 40.114 24.1068 39.9716C24.0573 39.8292 23.9771 39.6994 23.8721 39.5912C23.767 39.4831 23.6395 39.3993 23.4986 39.3458C23.3576 39.2922 23.2067 39.2701 23.0563 39.2812C21.7011 39.2812 20.3437 39.2812 18.9842 39.2812C18.8381 39.2655 18.6903 39.2824 18.5515 39.3307C18.4127 39.3791 18.2864 39.4575 18.1815 39.5605C18.0767 39.6635 17.996 39.7885 17.9453 39.9264C17.8945 40.0643 17.875 40.2118 17.8881 40.3581C17.8881 41.7155 17.8881 43.0729 17.8881 44.4303C17.872 44.5807 17.8898 44.7327 17.9402 44.8754C17.9905 45.018 18.0722 45.1475 18.1791 45.2545C18.2861 45.3614 18.4156 45.4431 18.5582 45.4934C18.7008 45.5438 18.8529 45.5616 19.0033 45.5455C20.3416 45.5455 21.6862 45.5455 23.0245 45.5455C23.1795 45.5588 23.3356 45.5374 23.4815 45.483C23.6273 45.4286 23.7592 45.3425 23.8677 45.231C23.9763 45.1194 24.0587 44.9851 24.109 44.8379C24.1593 44.6906 24.1763 44.534 24.1588 44.3793C24.1652 43.7293 24.1588 43.0793 24.1588 42.4229ZM5.7354 22.9416C5.7354 23.5789 5.7354 24.2799 5.7354 24.949C5.71695 25.1041 5.73393 25.2613 5.78505 25.4089C5.83618 25.5565 5.92012 25.6905 6.03055 25.801C6.14098 25.9114 6.27502 25.9953 6.42259 26.0464C6.57016 26.0976 6.7274 26.1145 6.88248 26.0961C8.20162 26.0961 9.52714 26.0961 10.8463 26.0961C11.0009 26.1095 11.1565 26.0891 11.3024 26.0363C11.4483 25.9836 11.5811 25.8998 11.6914 25.7907C11.8017 25.6816 11.887 25.5498 11.9413 25.4045C11.9957 25.2591 12.0178 25.1037 12.0061 24.949C12.0061 23.6299 12.0061 22.3044 12.0061 20.9852C12.0306 20.8251 12.0172 20.6614 11.9672 20.5073C11.9171 20.3533 11.8317 20.213 11.7177 20.0978C11.6038 19.9827 11.4645 19.8957 11.311 19.844C11.1574 19.7923 10.9939 19.7772 10.8335 19.7999C9.49528 19.7999 8.15701 19.7999 6.81875 19.7999C6.67095 19.7867 6.52205 19.8065 6.38286 19.8579C6.24366 19.9093 6.11764 19.9911 6.01394 20.0972C5.91023 20.2034 5.83144 20.3313 5.78327 20.4716C5.73509 20.612 5.71874 20.7613 5.7354 20.9087C5.69716 21.5779 5.7354 22.247 5.7354 22.9416ZM5.7354 32.6345C5.7354 33.3227 5.7354 34.011 5.7354 34.6928C5.72036 34.8436 5.73909 34.9957 5.79024 35.1383C5.84138 35.2809 5.92365 35.4103 6.03106 35.5171C6.13847 35.6239 6.26833 35.7054 6.4112 35.7558C6.55407 35.8061 6.70635 35.8239 6.85699 35.8081C8.19525 35.8081 9.53563 35.8081 10.8781 35.8081C11.0283 35.8204 11.1793 35.8001 11.3209 35.7486C11.4625 35.6971 11.5913 35.6156 11.6984 35.5096C11.8055 35.4037 11.8885 35.2759 11.9416 35.1349C11.9947 34.9939 12.0167 34.8431 12.0061 34.6928C12.0061 33.3546 12.0061 32.0163 12.0061 30.6781C12.0218 30.5272 12.0039 30.3747 11.9536 30.2315C11.9033 30.0884 11.8219 29.9582 11.7152 29.8503C11.6086 29.7425 11.4793 29.6596 11.3368 29.6077C11.1942 29.5557 11.0419 29.5361 10.8909 29.5501C9.53988 29.5501 8.18463 29.5501 6.82513 29.5501C6.6795 29.5354 6.53245 29.5531 6.39445 29.6019C6.25646 29.6506 6.13093 29.7293 6.02683 29.8322C5.92274 29.935 5.84264 30.0596 5.79226 30.197C5.74188 30.3344 5.72247 30.4813 5.7354 30.6271C5.69079 31.2962 5.7354 31.9653 5.7354 32.6345ZM17.9136 32.6345C17.9136 33.3036 17.9136 33.9727 17.9136 34.6419C17.897 34.7918 17.9139 34.9436 17.963 35.0863C18.0122 35.2289 18.0924 35.3589 18.1978 35.4668C18.3033 35.5747 18.4314 35.6578 18.5729 35.7102C18.7144 35.7626 18.8657 35.783 19.0161 35.7698C20.3713 35.7698 21.7287 35.7698 23.0882 35.7698C23.2343 35.7793 23.3807 35.7574 23.5177 35.7055C23.6546 35.6537 23.7788 35.5732 23.8821 35.4693C23.9853 35.3655 24.0651 35.2408 24.1161 35.1036C24.1672 34.9663 24.1882 34.8198 24.1779 34.6737C24.1779 33.3185 24.1779 31.9632 24.1779 30.608C24.1903 30.462 24.1708 30.3151 24.121 30.1773C24.0711 30.0396 23.9919 29.9143 23.8889 29.8101C23.786 29.706 23.6616 29.6253 23.5245 29.5738C23.3873 29.5223 23.2407 29.5012 23.0946 29.5119C21.7181 29.5119 20.3437 29.5119 18.9714 29.5119C18.8261 29.4957 18.6789 29.5124 18.5409 29.5608C18.4028 29.6092 18.2775 29.688 18.174 29.7914C18.0706 29.8949 17.9918 30.0202 17.9434 30.1583C17.895 30.2963 17.8783 30.4435 17.8945 30.5888C17.8753 31.2962 17.8881 31.9781 17.8881 32.6663L17.9136 32.6345ZM21.0043 26.0387C21.6926 26.0387 22.3808 26.0387 23.0627 26.0387C23.209 26.0487 23.3558 26.0277 23.4934 25.9772C23.6311 25.9268 23.7566 25.8479 23.8618 25.7457C23.967 25.6435 24.0495 25.5203 24.104 25.3842C24.1584 25.248 24.1836 25.1019 24.1779 24.9554C24.1779 23.5831 24.1779 22.2088 24.1779 20.8323C24.1864 20.6906 24.1646 20.5488 24.114 20.4162C24.0634 20.2836 23.9852 20.1632 23.8845 20.0632C23.7839 19.9631 23.6631 19.8856 23.5302 19.8359C23.3973 19.7861 23.2553 19.7651 23.1137 19.7744C21.7414 19.7744 20.3671 19.7744 18.9906 19.7744C18.8439 19.7601 18.6959 19.7788 18.5575 19.8292C18.419 19.8795 18.2935 19.9602 18.1903 20.0652C18.087 20.1703 18.0086 20.2972 17.9607 20.4365C17.9128 20.5759 17.8967 20.7241 17.9136 20.8705C17.9136 22.23 17.9136 23.5874 17.9136 24.9426C17.9004 25.093 17.9207 25.2443 17.9732 25.3858C18.0256 25.5273 18.1087 25.6554 18.2166 25.7609C18.3245 25.8663 18.4545 25.9465 18.5971 25.9957C18.7398 26.0448 18.8916 26.0617 19.0415 26.0451C19.6724 26.077 20.3288 26.0706 20.9788 26.0706L21.0043 26.0387ZM8.80703 39.2748C8.1379 39.2748 7.46877 39.2748 6.79963 39.2748C6.65487 39.2638 6.50946 39.2847 6.37364 39.336C6.23781 39.3873 6.11486 39.4676 6.01342 39.5715C5.91199 39.6754 5.83453 39.8002 5.7865 39.9372C5.73847 40.0742 5.72102 40.2201 5.7354 40.3645C5.7354 41.7325 5.7354 43.1069 5.7354 44.4876C5.72481 44.629 5.74497 44.7709 5.79448 44.9037C5.84398 45.0365 5.92167 45.1571 6.0222 45.257C6.12272 45.3569 6.2437 45.4339 6.37681 45.4826C6.50991 45.5313 6.65199 45.5506 6.79326 45.5391C8.16976 45.5391 9.54413 45.5391 10.9164 45.5391C11.0586 45.5472 11.2009 45.5255 11.3343 45.4755C11.4677 45.4255 11.5892 45.3483 11.6911 45.2488C11.793 45.1493 11.8731 45.0297 11.9262 44.8975C11.9793 44.7654 12.0044 44.6236 11.9997 44.4813C11.9997 43.1133 11.9997 41.7389 11.9997 40.3581C12.0075 40.2119 11.9839 40.0657 11.9305 39.9294C11.877 39.793 11.7951 39.6697 11.69 39.5677C11.585 39.4657 11.4593 39.3873 11.3215 39.3379C11.1836 39.2885 11.0368 39.2691 10.8909 39.2812C10.1963 39.2684 9.49528 39.2812 8.80703 39.2748Z" fill="#249CDE"/>
<path id="Vector_2" d="M11.8787 5.98393H21.9539C21.9539 6.19423 21.9539 6.39815 21.9539 6.6212C21.9539 7.67906 21.922 8.7433 22.0303 9.80753C22.1425 10.5238 22.5101 11.1752 23.0653 11.6415C23.6204 12.1077 24.3255 12.3573 25.0504 12.3441C25.7752 12.3309 26.4708 12.0558 27.0086 11.5696C27.5464 11.0834 27.89 10.419 27.976 9.6992C28.0653 8.7178 28.0206 7.72367 28.0334 6.74228C28.0334 6.51286 28.0334 6.28982 28.0334 6.03491H38.115C38.115 7.15013 38.115 8.25897 38.115 9.36144C38.1089 9.92198 38.2651 10.4723 38.5648 10.9461C38.8644 11.4198 39.2947 11.7968 39.8037 12.0316C40.2879 12.2947 40.8377 12.4124 41.3871 12.3705C41.9365 12.3287 42.4621 12.1291 42.9008 11.7958C43.2883 11.543 43.6074 11.1984 43.8298 10.7926C44.0521 10.3868 44.1708 9.93245 44.1754 9.46978C44.1754 8.34182 44.1754 7.21385 44.1754 5.9903C45.4499 6.09226 46.7244 5.76726 47.9034 6.23246C48.5063 6.42799 49.0316 6.80973 49.4038 7.32275C49.7759 7.83577 49.9758 8.45362 49.9745 9.08742C50.0319 11.2031 49.9745 13.3189 49.9745 15.4601C49.9745 15.817 49.8343 15.989 49.4711 15.9635C49.3649 15.9572 49.2586 15.9572 49.1524 15.9635H0.828448C0.00637267 15.9635 0 15.9635 0 15.1542C0 13.287 0 11.4198 0 9.54625C0 7.3668 1.35101 6.03491 3.53046 6.03491H5.81825C5.81825 7.15013 5.81825 8.22074 5.81825 9.29135C5.79071 10.039 6.05069 10.7688 6.54474 11.3306C6.94378 11.7975 7.4754 12.1319 8.069 12.2895C8.66261 12.4471 9.29011 12.4204 9.86818 12.213C10.4463 12.0055 10.9476 11.6272 11.3055 11.1281C11.6635 10.629 11.8611 10.0329 11.8723 9.4188C11.8978 8.22711 11.8787 7.13738 11.8787 5.98393Z" fill="#249CDE"/>
<path id="Vector_3" d="M43.6146 5.88198C43.6146 6.95897 43.6146 8.03595 43.6146 9.10656C43.6421 9.44407 43.5999 9.78365 43.4905 10.1041C43.3811 10.4246 43.2069 10.7191 42.9786 10.9693C42.7504 11.2195 42.4732 11.4201 42.1641 11.5584C41.855 11.6967 41.5207 11.77 41.1821 11.7735C40.8435 11.777 40.5077 11.7107 40.1958 11.5788C39.8839 11.4469 39.6026 11.2522 39.3692 11.0067C39.1359 10.7613 38.9556 10.4705 38.8396 10.1523C38.7235 9.83419 38.6743 9.49555 38.6948 9.15754C38.6948 7.81928 38.6948 6.48102 38.6948 5.14275C38.6948 4.31431 38.6948 3.48586 38.6948 2.65741C38.6705 2.31949 38.7161 1.98018 38.8286 1.66064C38.9412 1.3411 39.1185 1.04818 39.3493 0.800158C39.5801 0.552136 39.8595 0.354328 40.1701 0.21907C40.4807 0.0838131 40.8159 0.0140076 41.1547 0.0140076C41.4935 0.0140076 41.8287 0.0838131 42.1393 0.21907C42.4499 0.354328 42.7293 0.552136 42.9601 0.800158C43.1909 1.04818 43.3682 1.3411 43.4808 1.66064C43.5933 1.98018 43.6389 2.31949 43.6146 2.65741V5.88198Z" fill="#249CDE"/>
<path id="Vector_4" d="M6.37269 5.86923C6.37269 4.76038 6.37269 3.64517 6.37269 2.54907C6.35819 2.22588 6.40807 1.90304 6.51945 1.59931C6.63082 1.29559 6.80147 1.01703 7.02146 0.779837C7.24146 0.542647 7.50641 0.351558 7.80091 0.21768C8.09542 0.083802 8.4136 0.00980659 8.73696 -3.89945e-06C9.05536 -0.0234711 9.37521 0.018324 9.67689 0.122821C9.97858 0.227317 10.2557 0.392314 10.4914 0.607701C10.7271 0.823088 10.9163 1.08433 11.0475 1.37542C11.1786 1.6665 11.249 1.9813 11.2542 2.30053C11.3306 4.67966 11.3306 7.05667 11.2542 9.43155C11.2453 9.75019 11.1726 10.0638 11.0404 10.3538C10.9082 10.6439 10.7191 10.9045 10.4844 11.1202C10.2497 11.3358 9.97414 11.5023 9.67399 11.6096C9.37383 11.7169 9.0552 11.7629 8.73696 11.7448C8.08841 11.7118 7.47839 11.4269 7.03679 10.9508C6.59519 10.4747 6.35691 9.84496 6.37269 9.19576C6.37269 8.08692 6.37269 7.00994 6.37269 5.86923Z" fill="#249CDE"/>
<path id="Vector_5" d="M27.4407 5.85011C27.4407 6.97808 27.4407 8.10604 27.4407 9.234C27.4407 9.55452 27.3775 9.87191 27.2549 10.168C27.1322 10.4642 26.9524 10.7332 26.7258 10.9599C26.4992 11.1865 26.2301 11.3663 25.934 11.4889C25.6378 11.6116 25.3205 11.6747 24.9999 11.6747C24.6794 11.6747 24.362 11.6116 24.0659 11.4889C23.7698 11.3663 23.5007 11.1865 23.2741 10.9599C23.0474 10.7332 22.8677 10.4642 22.745 10.168C22.6223 9.87191 22.5592 9.55452 22.5592 9.234C22.5592 6.97808 22.5592 4.72852 22.5592 2.47259C22.5592 2.15207 22.6223 1.83469 22.745 1.53857C22.8677 1.24244 23.0474 0.973378 23.2741 0.746735C23.5007 0.520092 23.7698 0.340309 24.0659 0.21765C24.362 0.0949918 24.6794 0.0318604 24.9999 0.0318604C25.3205 0.0318604 25.6378 0.0949918 25.934 0.21765C26.2301 0.340309 26.4992 0.520092 26.7258 0.746735C26.9524 0.973378 27.1322 1.24244 27.2549 1.53857C27.3775 1.83469 27.4407 2.15207 27.4407 2.47259C27.4534 3.60056 27.4407 4.72215 27.4407 5.85011Z" fill="#249CDE"/>
</g>
</g>
</g>
</g>
</g>
</g>
</g>
</g>
<defs>
<filter id="filter0_d_0_1" x="-46" y="-20" width="288.816" height="97" filterUnits="userSpaceOnUse" color-interpolation-filters="sRGB">
<feFlood flood-opacity="0" result="BackgroundImageFix"/>
<feColorMatrix in="SourceAlpha" type="matrix" values="0 0 0 0 0 0 0 0 0 0 0 0 0 0 0 0 0 0 127 0" result="hardAlpha"/>
<feOffset dy="4"/>
<feGaussianBlur stdDeviation="2"/>
<feComposite in2="hardAlpha" operator="out"/>
<feColorMatrix type="matrix" values="0 0 0 0 0 0 0 0 0 0 0 0 0 0 0 0 0 0 0.25 0"/>
<feBlend mode="normal" in2="BackgroundImageFix" result="effect1_dropShadow_0_1"/>
<feBlend mode="normal" in="SourceGraphic" in2="effect1_dropShadow_0_1" result="shape"/>
</filter>
<clipPath id="clip0_0_1">
<rect width="1440" height="6673" fill="white" transform="translate(-164 -821)"/>
</clipPath>
<clipPath id="clip1_0_1">
<rect width="1195.82" height="89" fill="white" transform="translate(-42 -20)"/>
</clipPath>
<clipPath id="clip2_0_1">
<rect width="50" height="50" fill="white" transform="translate(-0.0919189 -0.5)"/>
</clipPath>
<clipPath id="clip3_0_1">
<rect width="50" height="49.5985" fill="white"/>
</clipPath>
</defs>
</svg>
