<svg width="51" height="51" viewBox="0 0 51 51" fill="none" xmlns="http://www.w3.org/2000/svg">
<g clip-path="url(#clip0_257_1368)">
<g clip-path="url(#clip1_257_1368)">
<path d="M31.923 1C32.7192 1.14644 33.5054 1.34298 34.2768 1.58844C38.1252 3.10663 40.4202 5.91938 41.0145 10.0208C41.5676 13.8457 40.0906 16.9292 37.2308 19.3535C35.4655 20.86 33.5354 22.1839 31.6994 23.608C29.5752 25.2556 27.4803 26.8915 25.3796 28.5568L24.9676 28.8863C24.4204 28.4156 23.9026 27.9213 23.3377 27.4976C20.725 25.5557 18.1005 23.6315 15.4819 21.6955C13.738 20.4914 12.1781 19.0404 10.8509 17.3881C6.37285 11.4213 9.80936 2.58291 17.1414 1.19419C17.4473 1.13534 17.7298 1.06473 18.0417 1H20.0953C20.1625 1.03868 20.2335 1.07023 20.3072 1.09415C21.7911 1.32665 23.1765 1.98253 24.2968 2.98305L24.9912 3.5715C26.0409 2.46929 27.3683 1.67041 28.8337 1.25891L29.8694 1H31.923ZM29.3633 12.8101H26.4211V9.9208H23.4789V12.863H20.5955V15.8052H23.5377V18.6533H26.4799V15.7111H29.3633V12.8101Z" fill="#249CDE"/>
<path d="M50.0177 25.3321C49.953 26.3148 49.8941 27.3034 49.8176 28.2743C49.7176 29.4865 49.6646 30.7105 49.4763 31.9168C49.1863 33.4787 48.4577 34.9258 47.3756 36.0889C45.8986 37.7895 44.298 39.3959 42.7269 41.0141C41.1558 42.6323 39.3845 44.2506 37.7781 45.9394C36.6726 47.031 35.8627 48.3856 35.4243 49.8761C35.3243 50.235 35.2772 50.6057 35.1948 51.0118H26.4447V50.4998C26.4447 46.6867 26.4447 42.8501 26.4447 39.0723C26.3918 37.6977 26.6917 36.3325 27.3159 35.1067C27.9402 33.8809 28.8679 32.8354 30.0106 32.0698C32.2709 30.3592 34.8173 29.0641 37.5309 28.2449C38.209 28.0608 38.9147 28.001 39.614 28.0684C40.7027 28.1743 41.144 28.9275 40.8439 29.9867C40.4978 31.1536 39.7706 32.1709 38.7785 32.876C36.7895 34.3706 34.7653 35.8182 32.7528 37.2834L32.1644 37.713L33.8885 40.0197C34.0121 39.9432 34.1239 39.8843 34.2239 39.8137C36.1716 38.4014 38.137 37.0068 40.0671 35.5651C42.3567 33.8977 43.9045 31.4019 44.3804 28.6097C44.5923 27.4329 44.5923 26.256 44.7276 25.0791C45.0748 22.1074 45.3984 19.1299 46.4929 16.3172C46.6914 15.8011 46.9716 15.3203 47.3226 14.8931C47.9111 14.1458 48.7173 14.2164 49.088 15.1109C49.4045 15.9936 49.6389 16.9037 49.7882 17.8295C49.897 18.4686 49.9736 19.1128 50.0177 19.7596V25.3321Z" fill="#249CDE"/>
<path d="M16.041 40.0549L17.8063 37.7012L16.5352 36.8126C14.7111 35.4827 12.8869 34.1882 11.1039 32.823C10.1581 32.1404 9.46164 31.167 9.12087 30.0514C8.79722 28.9393 9.24444 28.2449 10.3801 28.0448C11.3215 27.9374 12.2747 28.0689 13.1517 28.4273C15.4503 29.2924 17.6263 30.4536 19.6246 31.8815C20.8626 32.6385 21.8773 33.7108 22.5649 34.9888C23.2525 36.2667 23.5882 37.7043 23.5377 39.1546C23.5377 42.9167 23.5377 46.6789 23.5377 50.441V51.0294H14.7111C14.4992 48.5933 13.0517 46.8162 11.4629 45.145C9.57397 43.1972 7.54384 41.3731 5.61375 39.4606C4.65458 38.4897 3.72484 37.4834 2.81864 36.4184C1.23115 34.6622 0.326976 32.3945 0.270684 30.0279C0.194186 26.8915 0 23.7492 0 20.6128C0.0545698 19.1033 0.211852 17.5993 0.470754 16.1112C0.551998 15.6927 0.711728 15.2934 0.941509 14.9343C1.00135 14.7826 1.10178 14.6503 1.2318 14.5519C1.36183 14.4535 1.51644 14.3927 1.67869 14.3763C1.84094 14.3599 2.00457 14.3885 2.15167 14.4589C2.29877 14.5293 2.42366 14.6388 2.51265 14.7754C2.93083 15.2269 3.25135 15.7597 3.45416 16.3407C3.97319 18.0327 4.39171 19.754 4.70754 21.4955C5.08415 23.8492 5.21949 26.203 5.53725 28.5215C5.81483 30.5192 6.69791 32.3839 8.06755 33.8645C8.91015 34.7438 9.83202 35.5436 10.8215 36.2536C12.528 37.5423 14.2697 38.7721 16.041 40.0549Z" fill="#249CDE"/>
</g>
</g>
<defs>
<clipPath id="clip0_257_1368">
<rect width="50" height="50" fill="white" transform="translate(0.408081 0.5)"/>
</clipPath>
<clipPath id="clip1_257_1368">
<rect width="50" height="50" fill="white" transform="translate(0 1)"/>
</clipPath>
</defs>
</svg>
