<svg width="51" height="51" viewBox="0 0 51 51" fill="none" xmlns="http://www.w3.org/2000/svg">
<g clip-path="url(#clip0_257_1699)">
<g clip-path="url(#clip1_257_1699)">
<path d="M0 10.0914C1.13022 9.69445 2.26596 9.31403 3.38516 8.89502C10.4458 6.28907 17.5084 3.68129 24.5727 1.07167C24.8394 0.983353 25.1275 0.983353 25.3942 1.07167C33.4583 4.03047 41.5114 6.99845 49.5534 9.97563C49.6264 9.98814 49.6962 10.0152 49.7585 10.0553C49.8208 10.0954 49.8744 10.1476 49.9161 10.2088C49.9578 10.27 49.9867 10.3391 50.0011 10.4117C50.0155 10.4844 50.0151 10.5592 50 10.6317C50 12.2526 50 13.879 50 15.5385C49.8291 15.5385 49.6913 15.5716 49.5534 15.5716C33.1349 15.5716 16.7163 15.5716 0.297718 15.5716H0.00551329L0 10.0914Z" fill="#249CDE"/>
<path d="M0 45.0511H49.9945V50.9118H0V45.0511Z" fill="#249CDE"/>
<path d="M11.0266 42.096H3.67737V18.5323H11.0266V42.096Z" fill="#249CDE"/>
<path d="M38.99 42.0905V18.5267H46.3116V42.0905H38.99Z" fill="#249CDE"/>
<path d="M22.7589 42.1071H15.4703V18.5267H22.7589V42.1071Z" fill="#249CDE"/>
<path d="M34.5242 42.1071H27.2356V18.5267H34.5242V42.1071Z" fill="#249CDE"/>
</g>
</g>
<defs>
<clipPath id="clip0_257_1699">
<rect width="50" height="50" fill="white" transform="translate(0.408081 0.5)"/>
</clipPath>
<clipPath id="clip1_257_1699">
<rect width="50" height="49.9118" fill="white" transform="translate(0 1)"/>
</clipPath>
</defs>
</svg>
