<svg width="23" height="17" viewBox="0 0 23 17" fill="none" xmlns="http://www.w3.org/2000/svg">
<path d="M20.6208 0.820089L20.6133 0.821566L0.991139 5.01441C0.825579 5.04932 0.685225 5.11447 0.582633 5.20401C0.480041 5.29355 0.418409 5.4047 0.403252 5.52751C0.385323 5.65596 0.416796 5.79299 0.494838 5.92626C0.572881 6.05953 0.695045 6.18486 0.850339 6.29098L5.15946 9.23038C5.37201 9.37528 5.63667 9.47553 5.90782 9.51383C6.17897 9.55214 6.43963 9.5261 6.64487 9.44021L15.3103 5.76423C15.3445 5.7499 15.3879 5.74555 15.4332 5.75194C15.4784 5.75833 15.5225 5.77505 15.5579 5.79922C15.5934 5.82339 15.6179 5.85349 15.6273 5.88434C15.6366 5.91518 15.6302 5.94483 15.6092 5.96817L10.2206 11.8789C10.0946 12.0188 10.0563 12.1965 10.1123 12.3814C10.1682 12.5663 10.3149 12.7468 10.5271 12.8918L14.837 15.8317C14.9854 15.933 15.1606 16.0128 15.3471 16.064C15.5336 16.1151 15.7254 16.136 15.9054 16.1247C16.1227 16.1116 16.3143 16.0531 16.4564 15.9564C16.555 15.889 16.6277 15.8054 16.6702 15.7104L22.855 2.35194L22.8573 2.3457C22.9368 2.1633 22.9285 1.95607 22.8336 1.74966C22.7387 1.54326 22.5613 1.34672 22.3233 1.18438C22.0853 1.02203 21.7972 0.901 21.4946 0.836254C21.192 0.771506 20.8882 0.765887 20.6208 0.820089Z" fill="#1F2B6C"/>
</svg>
