<svg width="26" height="36" viewBox="0 0 26 36" fill="none" xmlns="http://www.w3.org/2000/svg">
<path d="M17.5 27.45C16.825 27.45 16.375 27.225 15.7 27L13 25.875L10.3 27C9.85002 27.225 9.17502 27.45 8.50002 27.45C8.05002 27.45 7.82502 27.45 7.37502 27.225L6.25002 36L13 31.5L19.75 36L18.4 27.225C18.175 27.45 17.725 27.45 17.5 27.45ZM24.025 13.275C23.8 12.825 23.8 12.15 24.025 11.7L25.375 9C25.825 8.1 25.375 6.975 24.25 6.525L21.325 5.4C20.875 5.175 20.425 4.725 20.2 4.275L19.075 1.35C18.85 0.45 18.175 0 17.5 0C17.275 0 16.825 0 16.6 0.225L13.675 1.575H13C12.775 1.575 12.55 1.575 12.325 1.35L9.40002 0.225C9.17502 0 8.72502 0 8.50002 0C7.82502 0 7.15002 0.45 6.70002 1.125L5.57502 4.275C5.57502 4.725 5.12502 5.175 4.67502 5.4L1.52502 6.525C0.625024 6.75 0.175023 7.875 0.625023 9L1.97502 11.925C2.20002 12.375 2.20002 13.05 1.97502 13.5L0.625023 16.2C0.175023 17.1 0.625023 18.225 1.75002 18.675L4.67502 19.8C5.12502 20.025 5.57502 20.475 5.80002 20.925L6.92502 23.85C7.15002 24.75 7.82502 25.2 8.50002 25.2C8.72502 25.2 8.95002 25.2 9.17502 24.975L12.1 23.625C12.325 23.625 12.55 23.4 12.775 23.4C13 23.4 13.225 23.4 13.45 23.625L16.375 24.975C16.6 25.2 16.825 25.2 17.05 25.2C17.725 25.2 18.4 24.75 18.85 24.075L19.975 21.15C20.2 20.7 20.65 20.25 21.1 20.025L24.025 18.9C24.925 18.45 25.6 17.325 25.15 16.425L24.025 13.275ZM13 21.6C8.05002 21.6 4.00002 17.55 4.00002 12.6C4.00002 7.65 8.05002 3.6 13 3.6C17.95 3.6 22 7.65 22 12.6C22 17.55 17.95 21.6 13 21.6Z" fill="#D4AF37"/>
</svg>
