<svg width="36" height="36" viewBox="0 0 36 36" fill="none" xmlns="http://www.w3.org/2000/svg">
<path d="M22.5 27.45C21.825 27.45 21.375 27.225 20.7 27L18 25.875L15.3 27C14.85 27.225 14.175 27.45 13.5 27.45C13.05 27.45 12.825 27.45 12.375 27.225L11.25 36L18 31.5L24.75 36L23.4 27.225C23.175 27.45 22.725 27.45 22.5 27.45ZM29.025 13.275C28.8 12.825 28.8 12.15 29.025 11.7L30.375 9C30.825 8.1 30.375 6.975 29.25 6.525L26.325 5.4C25.875 5.175 25.425 4.725 25.2 4.275L24.075 1.35C23.85 0.45 23.175 0 22.5 0C22.275 0 21.825 0 21.6 0.225L18.675 1.575H18C17.775 1.575 17.55 1.575 17.325 1.35L14.4 0.225C14.175 0 13.725 0 13.5 0C12.825 0 12.15 0.45 11.7 1.125L10.575 4.275C10.575 4.725 10.125 5.175 9.67502 5.4L6.52502 6.525C5.62502 6.75 5.17502 7.875 5.62502 9L6.97502 11.925C7.20002 12.375 7.20002 13.05 6.97502 13.5L5.62502 16.2C5.17502 17.1 5.62502 18.225 6.75002 18.675L9.67502 19.8C10.125 20.025 10.575 20.475 10.8 20.925L11.925 23.85C12.15 24.75 12.825 25.2 13.5 25.2C13.725 25.2 13.95 25.2 14.175 24.975L17.1 23.625C17.325 23.625 17.55 23.4 17.775 23.4C18 23.4 18.225 23.4 18.45 23.625L21.375 24.975C21.6 25.2 21.825 25.2 22.05 25.2C22.725 25.2 23.4 24.75 23.85 24.075L24.975 21.15C25.2 20.7 25.65 20.25 26.1 20.025L29.025 18.9C29.925 18.45 30.6 17.325 30.15 16.425L29.025 13.275ZM18 21.6C13.05 21.6 9.00002 17.55 9.00002 12.6C9.00002 7.65 13.05 3.6 18 3.6C22.95 3.6 27 7.65 27 12.6C27 17.55 22.95 21.6 18 21.6Z" fill="#CD7F32"/>
<path d="M24.75 12.6C24.75 14.3902 24.0388 16.1071 22.773 17.3729C21.5071 18.6388 19.7902 19.35 18 19.35C16.2098 19.35 14.4929 18.6388 13.227 17.3729C11.9612 16.1071 11.25 14.3902 11.25 12.6C11.25 10.8098 11.9612 9.09288 13.227 7.82701C14.4929 6.56113 16.2098 5.84998 18 5.84998C19.7902 5.84998 21.5071 6.56113 22.773 7.82701C24.0388 9.09288 24.75 10.8098 24.75 12.6Z" fill="#CD7F32"/>
</svg>
